#N canvas 3 23 1199 720 10;
#X obj 346 311 -;
#X floatatom 346 335 5 0 0 0 - - -, f 5;
#X obj 54 432 +;
#X obj 160 567 s metronome;
#X obj 29 498 > 20;
#X obj 67 498 < -20;
#X obj 54 520 +;
#X obj 7 545 sel 0;
#X obj 218 431 * -1;
#X text 58 396 calculate mean;
#X obj 25 362 r threshold;
#X obj 153 151 list split 1;
#X obj 156 126 tabdump errors;
#X obj 127 66 bng 15 250 50 0 empty empty empty 17 7 0 10 -262144 -1
-1;
#X obj 182 68 delay 0;
#X obj 164 97 onebang;
#X obj 352 247 list-minmax;
#X floatatom 352 269 5 0 0 0 - - -, f 5;
#X floatatom 429 274 5 0 0 0 - - -, f 5;
#X obj 91 25 r 1e;
#X obj 127 25 r 2e;
#X obj 160 24 r 3e;
#X obj 194 23 r 4e;
#X obj 226 23 r 5e;
#X obj 257 23 r 6e;
#X obj 287 23 r 7e;
#X obj 319 23 r 8e;
#X obj 351 23 r 9e;
#X obj 385 24 r 10e;
#X obj 422 23 r 11e;
#X obj 459 23 r 12e;
#X obj 496 23 r 13e;
#X obj 533 23 r 14e;
#X obj 569 23 r 15e;
#X obj 606 23 r 16e;
#X text 340 177 CALCULATE SPREAD BETWEEN MUSICIANS;
#X text 73 330 CALCULATE MEAN;
#X text 130 413 if mean larger than threshold-> send metronome to slaves
;
#X floatatom 173 600 5 0 0 0 - - -, f 5;
#X obj 8 668 tabwrite influences;
#X msg 80 636 0;
#X obj 671 56 bondo 16, f 95;
#X obj 672 22 r 1on;
#X obj 1236 21 r 16on;
#X obj 1198 21 r 15on;
#X obj 1161 21 r 14on;
#X obj 1125 19 r 13on;
#X obj 1089 20 r 12on;
#X obj 1053 21 r 11on;
#X obj 1015 22 r 10on;
#X obj 978 21 r 9on;
#X obj 940 21 r 8on;
#X obj 901 21 r 7on;
#X obj 864 20 r 6on;
#X obj 825 22 r 5on;
#X obj 787 20 r 4on;
#X obj 749 21 r 3on;
#X obj 710 22 r 2on;
#X obj 670 80 pack f f f f f f f f f f f f f f f f, f 95;
#X obj 669 102 sum;
#X obj 669 144 s active_channels;
#X obj 73 460 /;
#X obj 84 430 r active_channels;
#X text 102 462 comment;
#X text 669 156 number of channels switched ON;
#X obj 669 124 * 2;
#X text 32 684 sending metronome means setting Influence to 1 in ch0
;
#X obj 354 206 zl slice;
#X obj 135 492 s meanmean;
#X obj 366 347 s spread;
#X connect 0 0 1 0;
#X connect 1 0 69 0;
#X connect 2 0 61 0;
#X connect 4 0 6 0;
#X connect 5 0 6 1;
#X connect 6 0 3 0;
#X connect 6 0 7 0;
#X connect 6 0 38 0;
#X connect 6 0 39 0;
#X connect 7 0 40 0;
#X connect 8 0 5 1;
#X connect 10 0 4 1;
#X connect 10 0 8 0;
#X connect 11 1 2 0;
#X connect 11 1 67 0;
#X connect 12 0 11 0;
#X connect 13 0 14 0;
#X connect 13 0 15 0;
#X connect 14 0 15 1;
#X connect 15 0 12 0;
#X connect 16 0 17 0;
#X connect 16 1 18 0;
#X connect 17 0 0 1;
#X connect 18 0 0 0;
#X connect 19 0 13 0;
#X connect 20 0 13 0;
#X connect 21 0 13 0;
#X connect 22 0 13 0;
#X connect 23 0 13 0;
#X connect 24 0 13 0;
#X connect 25 0 13 0;
#X connect 26 0 13 0;
#X connect 27 0 13 0;
#X connect 28 0 13 0;
#X connect 29 0 13 0;
#X connect 30 0 13 0;
#X connect 31 0 13 0;
#X connect 32 0 13 0;
#X connect 33 0 13 0;
#X connect 34 0 13 0;
#X connect 40 0 39 1;
#X connect 41 0 58 0;
#X connect 41 1 58 1;
#X connect 41 2 58 2;
#X connect 41 3 58 3;
#X connect 41 4 58 4;
#X connect 41 5 58 5;
#X connect 41 6 58 6;
#X connect 41 7 58 7;
#X connect 41 8 58 8;
#X connect 41 9 58 9;
#X connect 41 10 58 10;
#X connect 41 11 58 11;
#X connect 41 12 58 12;
#X connect 41 13 58 13;
#X connect 41 14 58 14;
#X connect 41 15 58 15;
#X connect 42 0 41 0;
#X connect 43 0 41 15;
#X connect 44 0 41 14;
#X connect 45 0 41 13;
#X connect 46 0 41 12;
#X connect 47 0 41 11;
#X connect 48 0 41 10;
#X connect 49 0 41 9;
#X connect 50 0 41 8;
#X connect 51 0 41 7;
#X connect 52 0 41 6;
#X connect 53 0 41 5;
#X connect 54 0 41 4;
#X connect 55 0 41 3;
#X connect 56 0 41 2;
#X connect 57 0 41 1;
#X connect 58 0 59 0;
#X connect 59 0 65 0;
#X connect 61 0 4 0;
#X connect 61 0 5 0;
#X connect 61 0 68 0;
#X connect 62 0 61 1;
#X connect 65 0 60 0;
#X connect 65 0 67 1;
#X connect 67 0 16 0;
