#N canvas 5 23 1275 727 10;
#N canvas 0 22 450 300 (subpatch) 0;
#X array listenings 17 float 2 black black;
#X coords 0 1 17 0 200 140 1;
#X restore 24 27 graph;
#N canvas 0 22 450 300 (subpatch) 0;
#X array errors 17 float 2 black black;
#X coords 0 200 17 -200 200 140 1;
#X restore 782 23 graph;
#N canvas 0 22 450 300 (subpatch) 0;
#X array influences 17 float 2 black black;
#X coords 0 1 17 0 200 140 1;
#X restore 377 26 graph;
#X obj 33 234 tabwrite listenings;
#X obj 33 186 r 1li;
#X msg 140 208 1;
#X obj 140 186 loadbang;
#X obj 32 305 tabwrite listenings;
#X obj 139 257 loadbang;
#X obj 30 378 tabwrite listenings;
#X obj 137 330 loadbang;
#X obj 27 450 tabwrite listenings;
#X obj 134 402 loadbang;
#X obj 26 521 tabwrite listenings;
#X obj 133 473 loadbang;
#X obj 25 592 tabwrite listenings;
#X obj 132 544 loadbang;
#X obj 25 666 tabwrite listenings;
#X obj 132 618 loadbang;
#X obj 24 738 tabwrite listenings;
#X obj 131 690 loadbang;
#X obj 202 233 tabwrite listenings;
#X obj 309 185 loadbang;
#X obj 203 305 tabwrite listenings;
#X obj 310 257 loadbang;
#X obj 200 379 tabwrite listenings;
#X obj 307 331 loadbang;
#X obj 200 455 tabwrite listenings;
#X obj 307 407 loadbang;
#X obj 198 527 tabwrite listenings;
#X obj 305 479 loadbang;
#X obj 197 599 tabwrite listenings;
#X obj 304 551 loadbang;
#X obj 196 668 tabwrite listenings;
#X obj 303 620 loadbang;
#X obj 196 739 tabwrite listenings;
#X obj 303 691 loadbang;
#X msg 139 278 2;
#X obj 33 257 r 2li;
#X obj 30 330 r 3li;
#X msg 137 352 3;
#X obj 27 402 r 4li;
#X msg 134 424 4;
#X obj 26 473 r 5li;
#X msg 133 496 5;
#X obj 25 544 r 6li;
#X msg 132 566 6;
#X obj 25 618 r 7li;
#X msg 132 640 7;
#X obj 24 690 r 8li;
#X msg 131 712 8;
#X obj 203 185 r 9li;
#X msg 309 207 9;
#X obj 203 257 r 10li;
#X msg 310 279 10;
#X obj 200 331 r 11li;
#X msg 307 353 11;
#X obj 200 407 r 12li;
#X msg 307 429 12;
#X obj 198 479 r 13li;
#X msg 305 501 13;
#X obj 197 551 r 14li;
#X msg 304 573 14;
#X obj 196 619 r 15li;
#X msg 303 642 15;
#X obj 196 692 r 16li;
#X msg 303 713 16;
#X obj 383 184 r 1in;
#X obj 493 184 loadbang;
#X msg 493 206 1;
#X obj 383 229 tabwrite influences;
#X obj 493 251 loadbang;
#X obj 383 296 tabwrite influences;
#X obj 494 320 loadbang;
#X obj 384 365 tabwrite influences;
#X obj 493 388 loadbang;
#X obj 383 433 tabwrite influences;
#X obj 492 459 loadbang;
#X obj 382 504 tabwrite influences;
#X obj 492 527 loadbang;
#X obj 382 572 tabwrite influences;
#X obj 490 595 loadbang;
#X obj 380 640 tabwrite influences;
#X obj 487 667 loadbang;
#X obj 377 712 tabwrite influences;
#X obj 667 182 loadbang;
#X obj 557 227 tabwrite influences;
#X obj 667 249 loadbang;
#X obj 557 294 tabwrite influences;
#X obj 667 317 loadbang;
#X obj 557 362 tabwrite influences;
#X obj 669 386 loadbang;
#X obj 559 431 tabwrite influences;
#X obj 670 455 loadbang;
#X obj 560 500 tabwrite influences;
#X obj 670 524 loadbang;
#X obj 560 569 tabwrite influences;
#X obj 667 589 loadbang;
#X obj 557 634 tabwrite influences;
#X obj 666 657 loadbang;
#X obj 556 702 tabwrite influences;
#X obj 719 55 loadbang;
#X obj 609 100 tabwrite influences;
#X obj 609 55 r 0in;
#X msg 719 77 0;
#X obj 383 251 r 2in;
#X msg 492 273 2;
#X obj 385 320 r 3in;
#X msg 494 342 3;
#X obj 383 388 r 4in;
#X msg 493 410 4;
#X msg 492 481 5;
#X obj 382 527 r 6in;
#X msg 492 549 6;
#X obj 383 459 r 5in;
#X obj 380 595 r 7in;
#X msg 490 617 7;
#X obj 377 667 r 8in;
#X msg 487 689 8;
#X obj 557 182 r 9in;
#X msg 667 204 9;
#X obj 557 249 r 10in;
#X msg 667 271 10;
#X obj 557 317 r 11in;
#X msg 667 339 11;
#X obj 559 386 r 12in;
#X msg 669 408 12;
#X obj 560 455 r 13in;
#X msg 670 477 13;
#X obj 560 524 r 14in;
#X msg 670 546 14;
#X obj 557 589 r 15in;
#X msg 667 611 15;
#X obj 556 657 r 16in;
#X msg 666 679 16;
#X obj 766 181 r 1e;
#X obj 766 222 tabwrite errors;
#X obj 819 179 loadbang;
#X msg 819 201 1;
#X obj 765 289 tabwrite errors;
#X obj 818 246 loadbang;
#X obj 764 353 tabwrite errors;
#X obj 817 310 loadbang;
#X obj 764 419 tabwrite errors;
#X obj 817 376 loadbang;
#X obj 766 483 tabwrite errors;
#X obj 819 440 loadbang;
#X obj 765 548 tabwrite errors;
#X obj 818 505 loadbang;
#X obj 765 610 tabwrite errors;
#X obj 818 567 loadbang;
#X obj 765 676 tabwrite errors;
#X obj 818 633 loadbang;
#X obj 882 221 tabwrite errors;
#X obj 935 178 loadbang;
#X obj 882 286 tabwrite errors;
#X obj 935 243 loadbang;
#X obj 880 350 tabwrite errors;
#X obj 933 307 loadbang;
#X obj 880 416 tabwrite errors;
#X obj 933 373 loadbang;
#X obj 881 482 tabwrite errors;
#X obj 934 439 loadbang;
#X obj 881 546 tabwrite errors;
#X obj 934 503 loadbang;
#X obj 882 610 tabwrite errors;
#X obj 935 567 loadbang;
#X obj 882 674 tabwrite errors;
#X obj 935 631 loadbang;
#X obj 765 248 r 2e;
#X msg 818 268 2;
#X obj 764 312 r 3e;
#X msg 817 332 3;
#X obj 764 378 r 4e;
#X msg 817 398 4;
#X obj 766 442 r 5e;
#X msg 819 462 5;
#X obj 765 507 r 6e;
#X msg 818 527 6;
#X obj 765 569 r 7e;
#X msg 818 589 7;
#X obj 765 635 r 8e;
#X msg 817 655 8;
#X msg 935 200 9;
#X obj 882 180 r 9e;
#X obj 882 245 r 10e;
#X msg 936 264 10;
#X obj 880 309 r 11e;
#X msg 933 329 11;
#X obj 881 375 r 12e;
#X msg 933 395 12;
#X obj 881 441 r 13e;
#X msg 934 461 13;
#X obj 881 505 r 14e;
#X msg 934 525 14;
#X obj 882 569 r 15e;
#X msg 935 589 15;
#X obj 882 633 r 16e;
#X msg 935 653 16;
#X msg 1064 194 0;
#X obj 1063 160 r reset;
#X connect 4 0 3 0;
#X connect 5 0 3 1;
#X connect 6 0 5 0;
#X connect 8 0 37 0;
#X connect 10 0 40 0;
#X connect 12 0 42 0;
#X connect 14 0 44 0;
#X connect 16 0 46 0;
#X connect 18 0 48 0;
#X connect 20 0 50 0;
#X connect 22 0 52 0;
#X connect 24 0 54 0;
#X connect 26 0 56 0;
#X connect 28 0 58 0;
#X connect 30 0 60 0;
#X connect 32 0 62 0;
#X connect 34 0 64 0;
#X connect 36 0 66 0;
#X connect 37 0 7 1;
#X connect 38 0 7 0;
#X connect 39 0 9 0;
#X connect 40 0 9 1;
#X connect 41 0 11 0;
#X connect 42 0 11 1;
#X connect 43 0 13 0;
#X connect 44 0 13 1;
#X connect 45 0 15 0;
#X connect 46 0 15 1;
#X connect 47 0 17 0;
#X connect 48 0 17 1;
#X connect 49 0 19 0;
#X connect 50 0 19 1;
#X connect 51 0 21 0;
#X connect 52 0 21 1;
#X connect 53 0 23 0;
#X connect 54 0 23 1;
#X connect 55 0 25 0;
#X connect 56 0 25 1;
#X connect 57 0 27 0;
#X connect 58 0 27 1;
#X connect 59 0 29 0;
#X connect 60 0 29 1;
#X connect 61 0 31 0;
#X connect 62 0 31 1;
#X connect 63 0 33 0;
#X connect 64 0 33 1;
#X connect 65 0 35 0;
#X connect 66 0 35 1;
#X connect 67 0 70 0;
#X connect 68 0 69 0;
#X connect 69 0 70 1;
#X connect 71 0 106 0;
#X connect 73 0 108 0;
#X connect 75 0 110 0;
#X connect 77 0 111 0;
#X connect 79 0 113 0;
#X connect 81 0 116 0;
#X connect 83 0 118 0;
#X connect 85 0 120 0;
#X connect 87 0 122 0;
#X connect 89 0 124 0;
#X connect 91 0 126 0;
#X connect 93 0 128 0;
#X connect 95 0 130 0;
#X connect 97 0 132 0;
#X connect 99 0 134 0;
#X connect 101 0 104 0;
#X connect 103 0 102 0;
#X connect 104 0 102 1;
#X connect 105 0 72 0;
#X connect 106 0 72 1;
#X connect 107 0 74 0;
#X connect 108 0 74 1;
#X connect 109 0 76 0;
#X connect 110 0 76 1;
#X connect 111 0 78 1;
#X connect 112 0 80 0;
#X connect 113 0 80 1;
#X connect 114 0 78 0;
#X connect 115 0 82 0;
#X connect 116 0 82 1;
#X connect 117 0 84 0;
#X connect 118 0 84 1;
#X connect 119 0 86 0;
#X connect 120 0 86 1;
#X connect 121 0 88 0;
#X connect 122 0 88 1;
#X connect 123 0 90 0;
#X connect 124 0 90 1;
#X connect 125 0 92 0;
#X connect 126 0 92 1;
#X connect 127 0 94 0;
#X connect 128 0 94 1;
#X connect 129 0 96 0;
#X connect 130 0 96 1;
#X connect 131 0 98 0;
#X connect 132 0 98 1;
#X connect 133 0 100 0;
#X connect 134 0 100 1;
#X connect 135 0 136 0;
#X connect 137 0 138 0;
#X connect 138 0 136 1;
#X connect 140 0 170 0;
#X connect 142 0 172 0;
#X connect 144 0 174 0;
#X connect 146 0 176 0;
#X connect 148 0 178 0;
#X connect 150 0 180 0;
#X connect 152 0 182 0;
#X connect 154 0 183 0;
#X connect 156 0 186 0;
#X connect 158 0 188 0;
#X connect 160 0 190 0;
#X connect 162 0 192 0;
#X connect 164 0 194 0;
#X connect 166 0 196 0;
#X connect 168 0 198 0;
#X connect 169 0 139 0;
#X connect 170 0 139 1;
#X connect 171 0 141 0;
#X connect 172 0 141 1;
#X connect 173 0 143 0;
#X connect 174 0 143 1;
#X connect 175 0 145 0;
#X connect 176 0 145 1;
#X connect 177 0 147 0;
#X connect 178 0 147 1;
#X connect 179 0 149 0;
#X connect 180 0 149 1;
#X connect 181 0 151 0;
#X connect 182 0 151 1;
#X connect 183 0 153 1;
#X connect 184 0 153 0;
#X connect 185 0 155 0;
#X connect 186 0 155 1;
#X connect 187 0 157 0;
#X connect 188 0 157 1;
#X connect 189 0 159 0;
#X connect 190 0 159 1;
#X connect 191 0 161 0;
#X connect 192 0 161 1;
#X connect 193 0 163 0;
#X connect 194 0 163 1;
#X connect 195 0 165 0;
#X connect 196 0 165 1;
#X connect 197 0 167 0;
#X connect 198 0 167 1;
#X connect 199 0 136 0;
#X connect 199 0 153 0;
#X connect 199 0 139 0;
#X connect 199 0 155 0;
#X connect 199 0 141 0;
#X connect 199 0 157 0;
#X connect 199 0 143 0;
#X connect 199 0 159 0;
#X connect 199 0 145 0;
#X connect 199 0 161 0;
#X connect 199 0 147 0;
#X connect 199 0 163 0;
#X connect 199 0 149 0;
#X connect 199 0 165 0;
#X connect 199 0 151 0;
#X connect 199 0 167 0;
#X connect 200 0 199 0;
