#N canvas 369 128 944 536 10;
#X obj 97 230 timer;
#X floatatom 98 252 5 0 0 0 - - -, f 5;
#X obj 84 199 t b b;
#X obj 98 273 expr 60000/$f1;
#X floatatom 98 295 5 0 0 0 - - -, f 5;
#X obj 171 203 bng 15 250 50 0 empty empty empty 17 7 0 10 -262144
-1 -1;
#X obj 98 316 s bpm;
#X obj 46 76 sel 252;
#X obj 123 148 f, f 5;
#X obj 181 147 +;
#X obj 123 92 t b f;
#X obj 120 174 sel 1;
#X msg 93 114 0, f 1;
#X obj 74 168 sel 23;
#X obj 219 335 f;
#X obj 271 383 s iarray;
#X floatatom 295 363 5 0 0 0 - - -, f 5;
#X obj 262 298 t b f;
#X obj 248 335 +;
#X obj 206 177 == 0;
#X obj 246 177 == 12;
#X msg 52 334 0;
#X obj 30 368 delay 300;
#X obj 30 390 s reset;
#X obj 122 71 == 248;
#X obj 188 379 sel 100;
#X text 79 11 TRANSPORT INFO;
#X text 25 406 reset slave integrators;
#X text 26 417 reset tempo counters;
#X text 26 428 when transport STOPS;
#X text 207 402 Array drawing index;
#X text 283 177 each 1/2 beat;
#X text 133 232 time each beat;
#X text 188 272 to bpm;
#X text 25 55 transport stops;
#X text 162 71 transport playing \, gives 248 at rate 24/beat;
#X obj 559 33 r iarray;
#X obj 524 33 r 1e;
#X obj 499 56 tabwrite ch1_error;
#X obj 496 34 f;
#X obj 561 81 r iarray;
#X obj 498 82 f;
#X obj 562 129 r iarray;
#X obj 499 130 f;
#X obj 564 174 r iarray;
#X obj 501 175 f;
#X obj 564 220 r iarray;
#X obj 501 221 f;
#X obj 564 265 r iarray;
#X obj 501 266 f;
#X obj 566 312 r iarray;
#X obj 503 313 f;
#X obj 567 357 r iarray;
#X obj 504 358 f;
#X obj 706 35 r iarray;
#X obj 643 36 f;
#X obj 709 80 r iarray;
#X obj 646 81 f;
#X obj 710 127 r iarray;
#X obj 647 128 f;
#X obj 713 174 r iarray;
#X obj 650 175 f;
#X obj 714 220 r iarray;
#X obj 651 221 f;
#X obj 713 265 r iarray;
#X obj 650 266 f;
#X obj 714 309 r iarray;
#X obj 651 310 f;
#X obj 712 355 r iarray;
#X obj 649 356 f;
#X obj 526 81 r 2e;
#X obj 527 129 r 3e;
#X obj 529 174 r 4e;
#X obj 529 220 r 5e;
#X obj 529 265 r 6e;
#X obj 531 312 r 7e;
#X obj 532 357 r 8e;
#X obj 501 104 tabwrite ch2_error;
#X obj 502 152 tabwrite ch3_error;
#X obj 504 197 tabwrite ch4_error;
#X obj 504 243 tabwrite ch5_error;
#X obj 504 288 tabwrite ch6_error;
#X obj 506 335 tabwrite ch7_error;
#X obj 507 380 tabwrite ch8_error;
#X obj 671 35 r 9e;
#X obj 646 58 tabwrite ch9_error;
#X obj 674 80 r 10e;
#X obj 649 103 tabwrite ch10_error;
#X obj 675 127 r 11e;
#X obj 650 150 tabwrite ch11_error;
#X obj 678 174 r 12e;
#X obj 653 197 tabwrite ch12_error;
#X obj 679 220 r 13e;
#X obj 654 243 tabwrite ch13_error;
#X obj 678 264 r 14e;
#X obj 653 288 tabwrite ch14_error;
#X obj 679 309 r 15e;
#X obj 654 332 tabwrite ch15_error;
#X obj 677 355 r 16e;
#X obj 651 378 tabwrite ch16_error;
#X floatatom 246 199 5 0 0 0 - - -, f 5;
#X floatatom 206 199 5 0 0 0 - - -, f 5;
#X obj 394 211 sel 1;
#X obj 522 447 tabwrite MEAN;
#X obj 520 421 f;
#X obj 567 420 r iarray;
#X obj 546 402 r meanmean;
#X obj 741 415 r iarray;
#X obj 656 452 tabwrite SPREAD;
#X obj 648 424 f;
#X obj 680 407 r spread;
#X obj 92 31 midirealtimein;
#X connect 0 0 1 0;
#X connect 1 0 3 0;
#X connect 2 0 0 0;
#X connect 2 1 0 1;
#X connect 2 1 5 0;
#X connect 3 0 4 0;
#X connect 4 0 6 0;
#X connect 7 0 12 0;
#X connect 7 0 21 0;
#X connect 7 0 22 0;
#X connect 8 0 9 0;
#X connect 8 0 11 0;
#X connect 8 0 13 0;
#X connect 8 0 19 0;
#X connect 8 0 20 0;
#X connect 9 0 8 1;
#X connect 10 0 8 0;
#X connect 10 1 9 1;
#X connect 11 0 2 0;
#X connect 12 0 8 1;
#X connect 13 0 12 0;
#X connect 14 0 16 0;
#X connect 14 0 18 0;
#X connect 14 0 15 0;
#X connect 14 0 25 0;
#X connect 17 0 14 0;
#X connect 17 1 18 1;
#X connect 18 0 14 1;
#X connect 19 0 17 0;
#X connect 19 0 101 0;
#X connect 20 0 17 0;
#X connect 20 0 100 0;
#X connect 21 0 14 1;
#X connect 22 0 23 0;
#X connect 24 0 10 0;
#X connect 25 0 21 0;
#X connect 36 0 38 1;
#X connect 37 0 39 1;
#X connect 39 0 38 0;
#X connect 40 0 77 1;
#X connect 41 0 77 0;
#X connect 42 0 78 1;
#X connect 43 0 78 0;
#X connect 44 0 79 1;
#X connect 45 0 79 0;
#X connect 46 0 80 1;
#X connect 47 0 80 0;
#X connect 48 0 81 1;
#X connect 49 0 81 0;
#X connect 50 0 82 1;
#X connect 51 0 82 0;
#X connect 52 0 83 1;
#X connect 53 0 83 0;
#X connect 54 0 85 1;
#X connect 55 0 85 0;
#X connect 56 0 87 1;
#X connect 57 0 87 0;
#X connect 58 0 89 1;
#X connect 59 0 89 0;
#X connect 60 0 91 1;
#X connect 61 0 91 0;
#X connect 62 0 93 1;
#X connect 63 0 93 0;
#X connect 64 0 95 1;
#X connect 65 0 95 0;
#X connect 66 0 97 1;
#X connect 67 0 97 0;
#X connect 68 0 99 1;
#X connect 69 0 99 0;
#X connect 70 0 41 1;
#X connect 71 0 43 1;
#X connect 72 0 45 1;
#X connect 73 0 47 1;
#X connect 74 0 49 1;
#X connect 75 0 51 1;
#X connect 76 0 53 1;
#X connect 84 0 55 1;
#X connect 86 0 57 1;
#X connect 88 0 59 1;
#X connect 90 0 61 1;
#X connect 92 0 63 1;
#X connect 94 0 65 1;
#X connect 96 0 67 1;
#X connect 98 0 69 1;
#X connect 100 0 102 0;
#X connect 101 0 102 0;
#X connect 102 0 39 0;
#X connect 102 0 41 0;
#X connect 102 0 43 0;
#X connect 102 0 45 0;
#X connect 102 0 47 0;
#X connect 102 0 49 0;
#X connect 102 0 51 0;
#X connect 102 0 53 0;
#X connect 102 0 69 0;
#X connect 102 0 67 0;
#X connect 102 0 65 0;
#X connect 102 0 63 0;
#X connect 102 0 61 0;
#X connect 102 0 59 0;
#X connect 102 0 57 0;
#X connect 102 0 55 0;
#X connect 102 0 104 0;
#X connect 102 0 109 0;
#X connect 104 0 103 0;
#X connect 105 0 103 1;
#X connect 106 0 104 1;
#X connect 107 0 108 1;
#X connect 109 0 108 0;
#X connect 110 0 109 1;
#X connect 111 0 7 0;
#X connect 111 0 24 0;
