#N canvas 0 23 1280 718 10;
#X obj 1194 94 cnv 15 233 767 empty empty MASTER\ SECTION 20 12 0 14
-233017 -66577 0;
#X obj 131 93 cnv 15 1065 768 empty empty empty 20 12 0 14 -261636
-66577 0;
#X obj 141 139 hsl 128 15 0.2 8 1 0 1me empty empty -2 -8 0 10 -262144
-1 -1 3100 1;
#X msg 218 59 \; pd dsp 1;
#X obj 225 6 loadbang;
#X obj 49 954 humanizer_slave, f 17;
#X floatatom 57 1117 5 0 0 0 - - -, f 5;
#X floatatom 94 1117 5 0 0 0 - - -, f 5;
#X obj 39 888 notein 1;
#X obj 68 1247 noteout, f 17;
#X floatatom 401 282 5 0 0 0 - - -, f 5;
#X text 176 204 iclock error [ms];
#X text 434 283 influence [0 \, 1];
#X msg 29 1204 0;
#X obj 30 1058 r reset;
#X obj 159 912 loadbang;
#X msg 159 932 1;
#X obj 282 73 s max_range;
#N canvas 0 22 450 300 (subpatch) 0;
#X array ch2_error 100 float 4 black black;
#X coords 0 80 99 -80 103 144 1;
#X restore 540 140 graph;
#X text 24 1033 noteoffs;
#X text 24 1042 when STOP;
#X text 23 1023 force;
#X obj 394 262 hsl 128 15 0 1 0 0 2in empty empty -2 -8 0 10 -262144
-1 -1 6350 1;
#X floatatom 396 242 5 0 0 0 - - -, f 5;
#X obj 395 222 hsl 128 15 0 1 0 0 2li empty empty -2 -8 0 10 -262144
-1 -1 10350 1;
#X floatatom 400 202 5 0 0 0 - - -, f 5;
#X text 434 202 iclock error [ms];
#X obj 394 182 hsl 128 15 0.4 15 1 0 2ic empty empty -2 -8 0 10 -262144
-1 -1 9550 1;
#X floatatom 400 155 5 0 0 0 - - -, f 5;
#X text 436 154 motor error [ms];
#X obj 394 136 hsl 128 15 0.2 8 1 0 2me empty empty -2 -8 0 10 -262144
-1 -1 3750 1;
#X floatatom 148 160 5 0 0 0 - - -, f 5;
#X text 180 158 motor error [ms];
#X obj 140 185 hsl 128 15 0.4 15 1 0 1ic empty empty -2 -8 0 10 -262144
-1 -1 8800 1;
#X floatatom 147 204 5 0 0 0 - - -, f 5;
#X obj 142 225 hsl 128 15 0 1 0 0 1li empty empty -2 -8 0 10 -262144
-1 -1 6350 1;
#X floatatom 147 246 5 0 0 0 - - -, f 5;
#X obj 141 268 hsl 128 15 0 1 0 0 1in empty empty -2 -8 0 10 -262144
-1 -1 6350 1;
#X floatatom 146 287 5 0 0 0 - - -, f 5;
#X text 179 286 influence [0 \, 1];
#N canvas 0 22 450 300 (subpatch) 0;
#X array ch1_error 100 float 4 black black;
#X coords 0 80 99 -80 103 144 1;
#X restore 280 143 graph;
#N canvas 0 22 450 300 (subpatch) 0;
#X array SPREAD 100 float 0 #ff0000 #0000ff;
#X coords 0 120 99 0 200 140 1;
#X restore 1211 576 graph;
#X obj 1209 266 bng 31 250 50 0 reset empty FORCE\ RESYNC 17 7 0 16
-261697 -258049 -1;
#X msg 281 52 50;
#N canvas 0 22 450 300 (subpatch) 0;
#X array MEAN 100 float 4 black #ff0000;
#X coords 0 30 99 -30 200 140 1;
#X restore 1209 370 graph;
#X obj 1207 131 bng 39 250 50 0 empty empty SENDING\ METRONOME 17 7
0 16 -261633 -1 -1;
#X text 178 244 listening [0 \, 1];
#X floatatom 1207 182 3 0.1 30 1 METRONOME_THRESHOLD - threshold,
f 3;
#X msg 1203 66 20;
#X text 38 869 CH1;
#X text 183 118 CH1;
#X text 434 116 CH2;
#X text 427 242 listening [0 \, 1];
#N canvas 0 22 450 300 (subpatch) 0;
#X array ch3_error 100 float 4 black black;
#X coords 0 80 99 -80 103 144 1;
#X restore 794 143 graph;
#X floatatom 657 280 5 0 0 0 - - -, f 5;
#X text 690 281 influence [0 \, 1];
#X obj 650 260 hsl 128 15 0 1 0 0 3in empty empty -2 -8 0 10 -262144
-1 -1 6350 1;
#X floatatom 652 240 5 0 0 0 - - -, f 5;
#X obj 651 220 hsl 128 15 0 1 0 0 3li empty empty -2 -8 0 10 -262144
-1 -1 11750 1;
#X floatatom 656 200 5 0 0 0 - - -, f 5;
#X text 690 200 iclock error [ms];
#X obj 650 180 hsl 128 15 0.4 15 1 0 3ic empty empty -2 -8 0 10 -262144
-1 -1 9200 1;
#X floatatom 656 153 5 0 0 0 - - -, f 5;
#X text 692 152 motor error [ms];
#X obj 650 134 hsl 128 15 0.2 8 1 0 3me empty empty -2 -8 0 10 -262144
-1 -1 3600 1;
#X text 683 240 listening [0 \, 1];
#X text 691 116 CH3;
#X floatatom 912 285 5 0 0 0 - - -, f 5;
#X text 945 286 influence [0 \, 1];
#X obj 905 265 hsl 128 15 0 1 0 0 4in empty empty -2 -8 0 10 -262144
-1 -1 6350 1;
#X floatatom 907 245 5 0 0 0 - - -, f 5;
#X obj 906 225 hsl 128 15 0 1 0 0 4li empty empty -2 -8 0 10 -262144
-1 -1 6350 1;
#X floatatom 911 205 5 0 0 0 - - -, f 5;
#X text 945 205 iclock error [ms];
#X obj 905 185 hsl 128 15 0.4 15 1 0 4ic empty empty -2 -8 0 10 -262144
-1 -1 0 1;
#X floatatom 911 158 5 0 0 0 - - -, f 5;
#X text 947 157 motor error [ms];
#X obj 905 139 hsl 128 15 0.2 8 1 0 4me empty empty -2 -8 0 10 -262144
-1 -1 0 1;
#X text 938 245 listening [0 \, 1];
#X text 940 119 CH4;
#N canvas 0 22 450 300 (subpatch) 0;
#X array ch4_error 100 float 4 black black;
#X coords 0 80 99 -80 103 144 1;
#X restore 1050 142 graph;
#X text 314 51 latency buffer size;
#X floatatom 147 472 5 0 0 0 - - -, f 5;
#X text 180 473 influence [0 \, 1];
#X obj 140 452 hsl 128 15 0 1 0 0 5in empty empty -2 -8 0 10 -262144
-1 -1 0 1;
#X floatatom 142 432 5 0 0 0 - - -, f 5;
#X obj 140 412 hsl 128 15 0 1 0 0 5li empty empty -2 -8 0 10 -262144
-1 -1 0 1;
#X floatatom 146 392 5 0 0 0 - - -, f 5;
#X text 180 392 iclock error [ms];
#X obj 140 371 hsl 128 15 0.4 15 1 0 5ic empty empty -2 -8 0 10 -262144
-1 -1 10600 1;
#X floatatom 146 345 5 0 0 0 - - -, f 5;
#X text 182 344 motor error [ms];
#X obj 140 326 hsl 128 15 0.2 8 1 0 5me empty empty -2 -8 0 10 -262144
-1 -1 0 1;
#X text 173 432 listening [0 \, 1];
#X floatatom 402 469 5 0 0 0 - - -, f 5;
#X text 435 470 influence [0 \, 1];
#X obj 395 449 hsl 128 15 0 1 0 0 6in empty empty -2 -8 0 10 -262144
-1 -1 6350 1;
#X floatatom 397 429 5 0 0 0 - - -, f 5;
#X obj 396 409 hsl 128 15 0 1 0 0 6li empty empty -2 -8 0 10 -262144
-1 -1 12450 1;
#X floatatom 401 389 5 0 0 0 - - -, f 5;
#X text 435 389 iclock error [ms];
#X obj 395 369 hsl 128 15 0.4 15 1 0 6ic empty empty -2 -8 0 10 -262144
-1 -1 8800 1;
#X floatatom 401 342 5 0 0 0 - - -, f 5;
#X text 437 341 motor error [ms];
#X obj 395 323 hsl 128 15 0.2 8 1 0 6me empty empty -2 -8 0 10 -262144
-1 -1 2700 1;
#X text 428 429 listening [0 \, 1];
#X floatatom 658 468 5 0 0 0 - - -, f 5;
#X text 691 469 influence [0 \, 1];
#X obj 651 448 hsl 128 15 0 1 0 0 7in empty empty -2 -8 0 10 -262144
-1 -1 0 1;
#X floatatom 653 428 5 0 0 0 - - -, f 5;
#X obj 652 409 hsl 128 15 0 1 0 0 7li empty empty -2 -8 0 10 -262144
-1 -1 0 1;
#X floatatom 657 388 5 0 0 0 - - -, f 5;
#X text 691 388 iclock error [ms];
#X obj 651 368 hsl 128 15 0.4 15 1 0 7ic empty empty -2 -8 0 10 -262144
-1 -1 2500 1;
#X floatatom 657 341 5 0 0 0 - - -, f 5;
#X text 693 340 motor error [ms];
#X obj 651 322 hsl 128 15 0.2 8 1 0 7me empty empty -2 -8 0 10 -262144
-1 -1 0 1;
#X text 684 428 listening [0 \, 1];
#X floatatom 916 474 5 0 0 0 - - -, f 5;
#X text 949 475 influence [0 \, 1];
#X obj 909 454 hsl 128 15 0 1 0 0 8in empty empty -2 -8 0 10 -262144
-1 -1 0 1;
#X floatatom 911 434 5 0 0 0 - - -, f 5;
#X obj 910 414 hsl 128 15 0 1 0 0 8li empty empty -2 -8 0 10 -262144
-1 -1 0 1;
#X floatatom 915 394 5 0 0 0 - - -, f 5;
#X text 949 394 iclock error [ms];
#X obj 910 374 hsl 128 15 0.4 15 1 0 8ic empty empty -2 -8 0 10 -262144
-1 -1 0 1;
#X floatatom 915 347 5 0 0 0 - - -, f 5;
#X text 951 346 motor error [ms];
#X obj 909 328 hsl 128 15 0.2 8 1 1 8me empty empty -2 -8 0 10 -262144
-1 -1 5150 1;
#X text 942 434 listening [0 \, 1];
#X floatatom 143 644 5 0 0 0 - - -, f 5;
#X text 178 641 influence [0 \, 1];
#X obj 140 625 hsl 128 15 0 1 0 0 9in empty empty -2 -8 0 10 -262144
-1 -1 0 1;
#X floatatom 142 605 5 0 0 0 - - -, f 5;
#X obj 141 588 hsl 128 15 0 1 0 0 9li empty empty -2 -8 0 10 -262144
-1 -1 0 1;
#X floatatom 146 571 5 0 0 0 - - -, f 5;
#X text 181 570 iclock error [ms];
#X obj 140 553 hsl 128 15 0.4 15 1 0 9ic empty empty -2 -8 0 10 -262144
-1 -1 0 1;
#X floatatom 144 536 5 0 0 0 - - -, f 5;
#X text 180 535 motor error [ms];
#X obj 138 517 hsl 128 15 0.2 8 1 0 9me empty empty -2 -8 0 10 -262144
-1 -1 0 1;
#X text 173 605 listening [0 \, 1];
#X floatatom 402 654 5 0 0 0 - - -, f 5;
#X text 435 655 influence [0 \, 1];
#X obj 395 634 hsl 128 15 0 1 0 0 10in empty empty -2 -8 0 10 -262144
-1 -1 0 1;
#X floatatom 397 614 5 0 0 0 - - -, f 5;
#X obj 396 594 hsl 128 15 0 1 0 0 10li empty empty -2 -8 0 10 -262144
-1 -1 0 1;
#X floatatom 401 574 5 0 0 0 - - -, f 5;
#X text 435 574 iclock error [ms];
#X obj 395 554 hsl 128 15 0.4 15 1 0 10ic empty empty -2 -8 0 10 -262144
-1 -1 0 1;
#X floatatom 401 527 5 0 0 0 - - -, f 5;
#X text 437 526 motor error [ms];
#X obj 395 508 hsl 128 15 0.2 8 1 0 10me empty empty -2 -8 0 10 -262144
-1 -1 0 1;
#X text 428 614 listening [0 \, 1];
#X floatatom 660 654 5 0 0 0 - - -, f 5;
#X text 693 655 influence [0 \, 1];
#X obj 653 633 hsl 128 15 0 1 0 0 11in empty empty -2 -8 0 10 -262144
-1 -1 0 1;
#X floatatom 655 614 5 0 0 0 - - -, f 5;
#X obj 654 593 hsl 128 15 0 1 0 0 11li empty empty -2 -8 0 10 -262144
-1 -1 0 1;
#X floatatom 659 574 5 0 0 0 - - -, f 5;
#X text 693 574 iclock error [ms];
#X obj 653 554 hsl 128 15 0.4 15 1 0 11ic empty empty -2 -8 0 10 -262144
-1 -1 0 1;
#X floatatom 659 527 5 0 0 0 - - -, f 5;
#X text 695 526 motor error [ms];
#X obj 653 508 hsl 128 15 0.2 8 1 0 11me empty empty -2 -8 0 10 -262144
-1 -1 0 1;
#X text 686 614 listening [0 \, 1];
#X floatatom 920 658 5 0 0 0 - - -, f 5;
#X text 953 659 influence [0 \, 1];
#X obj 913 638 hsl 128 15 0 1 0 0 12in empty empty -2 -8 0 10 -262144
-1 -1 0 1;
#X floatatom 915 618 5 0 0 0 - - -, f 5;
#X obj 914 598 hsl 128 15 0 1 0 0 12li empty empty -2 -8 0 10 -262144
-1 -1 0 1;
#X floatatom 919 578 5 0 0 0 - - -, f 5;
#X text 953 578 iclock error [ms];
#X obj 913 558 hsl 128 15 0.4 15 1 0 12ic empty empty -2 -8 0 10 -262144
-1 -1 0 1;
#X floatatom 919 531 5 0 0 0 - - -, f 5;
#X text 955 530 motor error [ms];
#X obj 913 512 hsl 128 15 0.2 8 1 0 12me empty empty -2 -8 0 10 -262144
-1 -1 0 1;
#X text 946 618 listening [0 \, 1];
#X text 185 821 influence [0 \, 1];
#X obj 149 805 hsl 128 15 0 1 0 0 13in empty empty -2 -8 0 10 -262144
-1 -1 0 1;
#X obj 149 771 hsl 128 15 0 1 0 0 13li empty empty -2 -8 0 10 -262144
-1 -1 0 1;
#X text 185 753 iclock error [ms];
#X obj 150 735 hsl 128 15 0.4 15 1 0 13ic empty empty -2 -8 0 10 -262144
-1 -1 0 1;
#X text 182 714 motor error [ms];
#X obj 148 699 hsl 128 15 0.2 8 1 0 13me empty empty -2 -8 0 10 -262144
-1 -1 0 1;
#X text 182 786 listening [0 \, 1];
#X text 441 822 influence [0 \, 1];
#X obj 401 804 hsl 128 15 0 1 0 0 14in empty empty -2 -8 0 10 -262144
-1 -1 0 1;
#X obj 402 772 hsl 128 15 0 1 0 0 14li empty empty -2 -8 0 10 -262144
-1 -1 0 1;
#X text 441 756 iclock error [ms];
#X obj 401 739 hsl 128 15 0.4 15 1 0 14ic empty empty -2 -8 0 10 -262144
-1 -1 0 1;
#X text 447 722 motor error [ms];
#X obj 402 705 hsl 128 15 0.2 8 1 0 14me empty empty -2 -8 0 10 -262144
-1 -1 0 1;
#X text 436 788 listening [0 \, 1];
#X text 700 836 influence [0 \, 1];
#X obj 660 815 hsl 128 15 0 1 0 0 15in empty empty -2 -8 0 10 -262144
-1 -1 0 1;
#X obj 661 775 hsl 128 15 0 1 0 0 15li empty empty -2 -8 0 10 -262144
-1 -1 0 1;
#X text 700 755 iclock error [ms];
#X obj 660 735 hsl 128 15 0.4 15 1 0 15ic empty empty -2 -8 0 10 -262144
-1 -1 0 1;
#X text 702 707 motor error [ms];
#X obj 660 689 hsl 128 15 0.2 8 1 0 15me empty empty -2 -8 0 10 -262144
-1 -1 0 1;
#X text 693 795 listening [0 \, 1];
#X text 959 840 influence [0 \, 1];
#X obj 919 819 hsl 128 15 0 1 0 0 16in empty empty -2 -8 0 10 -262144
-1 -1 0 1;
#X obj 920 779 hsl 128 15 0 1 0 0 16li empty empty -2 -8 0 10 -262144
-1 -1 0 1;
#X text 959 759 iclock error [ms];
#X obj 919 739 hsl 128 15 0.4 15 1 0 16ic empty empty -2 -8 0 10 -262144
-1 -1 0 1;
#X text 961 711 motor error [ms];
#X obj 919 693 hsl 128 15 0.2 8 1 0 16me empty empty -2 -8 0 10 -262144
-1 -1 0 1;
#X text 952 799 listening [0 \, 1];
#N canvas 0 22 450 300 (subpatch) 0;
#X array ch5_error 100 float 4 black black;
#X coords 0 80 99 -80 103 144 1;
#X restore 282 334 graph;
#N canvas 0 22 450 300 (subpatch) 0;
#X array ch6_error 100 float 4 black black;
#X coords 0 80 99 -80 103 144 1;
#X restore 540 325 graph;
#N canvas 0 22 450 300 (subpatch) 0;
#X array ch7_error 100 float 4 black black;
#X coords 0 80 99 -80 103 144 1;
#X restore 795 326 graph;
#N canvas 0 22 450 300 (subpatch) 0;
#X array ch8_error 100 float 4 black black;
#X coords 0 80 99 -80 103 144 1;
#X restore 1055 330 graph;
#N canvas 0 22 450 300 (subpatch) 0;
#X array ch10_error 100 float 4 black black;
#X coords 0 80 99 -80 103 144 1;
#X restore 540 510 graph;
#N canvas 0 22 450 300 (subpatch) 0;
#X array ch11_error 100 float 5 black black;
#A 0 0 0 0 0 0 0 0 0 0 0 0 0 0 0 0 0 0 0 0 0 0 0 0 0 0 0 0 0 0 0 0
0 0 0 0 0 0 0 0 0 0 0 0 0 0 0 0 0 0 0 0 0 0 0 0 0 0 0 0 0 0 0 0 0 0
0 0 0 0 0 0 0 0 0 0 0 0 0 0 0 0 0 0 0 0 0 0 0 0 0 0 0 0 0 0 0 0 0 0
0;
#X coords 0 80 99 -80 103 144 1;
#X restore 800 513 graph;
#N canvas 0 22 450 300 (subpatch) 0;
#X array ch12_error 100 float 4 black black;
#X coords 0 80 99 -80 103 144 1;
#X restore 1057 514 graph;
#N canvas 0 22 450 300 (subpatch) 0;
#X array ch13_error 100 float 4 black black;
#X coords 0 80 99 -80 103 144 1;
#X restore 288 692 graph;
#N canvas 0 22 450 300 (subpatch) 0;
#X array ch14_error 100 float 4 black black;
#X coords 0 80 99 -80 103 144 1;
#X restore 543 693 graph;
#N canvas 0 22 450 300 (subpatch) 0;
#X array ch15_error 100 float 4 black black;
#X coords 0 80 99 -80 103 144 1;
#X restore 807 694 graph;
#N canvas 0 22 450 300 (subpatch) 0;
#X array ch16_error 100 float 4 black black;
#X coords 0 80 99 -80 103 144 1;
#X restore 1063 700 graph;
#X text 183 308 CH5;
#X text 448 303 CH6;
#X text 692 304 CH7;
#X text 950 309 CH8;
#X text 177 501 CH9;
#X text 438 492 CH10;
#X text 692 491 CH11;
#X text 953 495 CH12;
#X text 201 680 CH13;
#X text 453 687 CH14;
#X text 714 669 CH15;
#X text 954 676 CH16;
#X obj 26 44 create_tables;
#X obj 108 887 r 1ic;
#X obj 151 887 r 1me;
#X obj 133 1002 s 1e;
#X obj 26 68 calculate_mean;
#X obj 140 120 tgl 15 0 1on empty ON/OFF 17 7 0 6 -4033 -1 -1 0.5 0.5
;
#X obj 140 307 tgl 15 0 5on empty ON/OFF 17 7 0 6 -4033 -1 -1 0 0.5
;
#X obj 137 499 tgl 15 0 9on empty ON/OFF 17 7 0 6 -4033 -1 -1 0 0.5
;
#X obj 148 682 tgl 15 0 13on empty ON/OFF 17 7 0 6 -4033 -1 -1 0 0.5
;
#X obj 401 687 tgl 15 0 14on empty ON/OFF 17 7 0 6 -4033 -1 -1 0 0.5
;
#X obj 659 675 tgl 15 0 15on empty ON/OFF 17 7 0 6 -4033 -1 -1 0 0.5
;
#X obj 651 492 tgl 15 0 11on empty ON/OFF 17 7 0 6 -4033 -1 -1 0 0.5
;
#X obj 394 491 tgl 15 0 10on empty ON/OFF 17 7 0 6 -4033 -1 -1 0 0.5
;
#X obj 393 302 tgl 15 0 6on empty ON/OFF 17 7 0 6 -4033 -1 -1 0.5 0.5
;
#X obj 651 305 tgl 15 0 7on empty ON/OFF 17 7 0 6 -4033 -1 -1 0 0.5
;
#X obj 394 117 tgl 15 0 2on empty ON/OFF 17 7 0 6 -4033 -1 -1 0.5 0.5
;
#X obj 651 116 tgl 15 0 3on empty ON/OFF 17 7 0 6 -4033 -1 -1 0.5 0.5
;
#X obj 902 119 tgl 15 0 4on empty ON/OFF 17 7 0 6 -4033 -1 -1 0.5 0.5
;
#X obj 908 306 tgl 15 0 8on empty ON/OFF 17 7 0 6 -4033 -1 -1 0 0.5
;
#X obj 913 497 tgl 15 0 12on empty ON/OFF 17 7 0 6 -4033 -1 -1 0 0.5
;
#X obj 914 676 tgl 15 0 16on empty ON/OFF 17 7 0 6 -4033 -1 -1 0 0.5
;
#X floatatom 149 717 5 0 0 0 - - -, f 5;
#X floatatom 149 752 5 0 0 0 - - -, f 5;
#X floatatom 150 788 5 0 0 0 - - -, f 5;
#X floatatom 149 824 5 0 0 0 - - -, f 5;
#X floatatom 406 721 5 0 0 0 - - -, f 5;
#X floatatom 404 755 5 0 0 0 - - -, f 5;
#X floatatom 402 787 5 0 0 0 - - -, f 5;
#X floatatom 401 821 5 0 0 0 - - -, f 5;
#X floatatom 660 835 5 0 0 0 - - -, f 5;
#X floatatom 661 795 5 0 0 0 - - -, f 5;
#X floatatom 660 755 5 0 0 0 - - -, f 5;
#X floatatom 660 709 5 0 0 0 - - -, f 5;
#X floatatom 919 713 5 0 0 0 - - -, f 5;
#X floatatom 919 759 5 0 0 0 - - -, f 5;
#X floatatom 920 799 5 0 0 0 - - -, f 5;
#X floatatom 919 839 5 0 0 0 - - -, f 5;
#X obj 311 18 r metronome;
#X obj 846 37 sel 1;
#X obj 62 1140 r 1on;
#X obj 63 1201 switch;
#X obj 62 1162 + 1.5;
#X obj 120 1195 switch;
#X obj 229 954 humanizer_slave, f 17;
#X floatatom 237 1117 5 0 0 0 - - -, f 5;
#X floatatom 274 1117 5 0 0 0 - - -, f 5;
#X obj 248 1247 noteout, f 17;
#X msg 209 1204 0;
#X obj 210 1058 r reset;
#X obj 339 912 loadbang;
#X text 204 1033 noteoffs;
#X text 204 1042 when STOP;
#X text 203 1023 force;
#X obj 243 1201 switch;
#X obj 242 1162 + 1.5;
#X obj 300 1195 switch;
#X obj 407 960 humanizer_slave, f 17;
#X floatatom 415 1123 5 0 0 0 - - -, f 5;
#X floatatom 452 1123 5 0 0 0 - - -, f 5;
#X obj 426 1253 noteout, f 17;
#X msg 387 1210 0;
#X obj 388 1064 r reset;
#X obj 517 918 loadbang;
#X text 382 1039 noteoffs;
#X text 382 1048 when STOP;
#X text 381 1029 force;
#X obj 421 1207 switch;
#X obj 420 1168 + 1.5;
#X obj 478 1201 switch;
#X obj 580 955 humanizer_slave, f 17;
#X floatatom 588 1118 5 0 0 0 - - -, f 5;
#X floatatom 625 1118 5 0 0 0 - - -, f 5;
#X obj 599 1248 noteout, f 17;
#X msg 560 1205 0;
#X obj 561 1059 r reset;
#X obj 690 913 loadbang;
#X text 555 1034 noteoffs;
#X text 555 1043 when STOP;
#X text 554 1024 force;
#X obj 594 1202 switch;
#X obj 593 1163 + 1.5;
#X obj 651 1196 switch;
#X obj 753 950 humanizer_slave, f 17;
#X floatatom 761 1113 5 0 0 0 - - -, f 5;
#X floatatom 798 1113 5 0 0 0 - - -, f 5;
#X obj 772 1243 noteout, f 17;
#X msg 733 1200 0;
#X obj 734 1054 r reset;
#X obj 863 908 loadbang;
#X text 728 1029 noteoffs;
#X text 728 1038 when STOP;
#X text 727 1019 force;
#X obj 767 1197 switch;
#X obj 766 1158 + 1.5;
#X obj 824 1191 switch;
#X obj 929 951 humanizer_slave, f 17;
#X floatatom 937 1114 5 0 0 0 - - -, f 5;
#X floatatom 974 1114 5 0 0 0 - - -, f 5;
#X obj 948 1244 noteout, f 17;
#X msg 909 1201 0;
#X obj 910 1055 r reset;
#X obj 1039 909 loadbang;
#X text 904 1030 noteoffs;
#X text 904 1039 when STOP;
#X text 903 1020 force;
#X obj 943 1198 switch;
#X obj 942 1159 + 1.5;
#X obj 1000 1192 switch;
#X obj 1104 952 humanizer_slave, f 17;
#X floatatom 1112 1115 5 0 0 0 - - -, f 5;
#X floatatom 1149 1115 5 0 0 0 - - -, f 5;
#X obj 1123 1245 noteout, f 17;
#X msg 1084 1202 0;
#X obj 1085 1056 r reset;
#X obj 1214 910 loadbang;
#X text 1079 1031 noteoffs;
#X text 1079 1040 when STOP;
#X text 1078 1021 force;
#X obj 1118 1199 switch;
#X obj 1117 1160 + 1.5;
#X obj 1175 1193 switch;
#X obj 1284 951 humanizer_slave, f 17;
#X floatatom 1292 1114 5 0 0 0 - - -, f 5;
#X floatatom 1329 1114 5 0 0 0 - - -, f 5;
#X obj 1303 1244 noteout, f 17;
#X msg 1264 1201 0;
#X obj 1265 1055 r reset;
#X obj 1394 909 loadbang;
#X text 1259 1030 noteoffs;
#X text 1259 1039 when STOP;
#X text 1258 1020 force;
#X obj 1298 1198 switch;
#X obj 1297 1159 + 1.5;
#X obj 1355 1192 switch;
#X obj 37 1360 humanizer_slave, f 17;
#X floatatom 45 1523 5 0 0 0 - - -, f 5;
#X floatatom 82 1523 5 0 0 0 - - -, f 5;
#X obj 56 1653 noteout, f 17;
#X msg 17 1610 0;
#X obj 18 1464 r reset;
#X obj 147 1318 loadbang;
#X text 12 1439 noteoffs;
#X text 12 1448 when STOP;
#X text 11 1429 force;
#X obj 51 1607 switch;
#X obj 50 1568 + 1.5;
#X obj 108 1601 switch;
#X obj 223 1357 humanizer_slave, f 17;
#X floatatom 231 1520 5 0 0 0 - - -, f 5;
#X floatatom 268 1520 5 0 0 0 - - -, f 5;
#X obj 242 1650 noteout, f 17;
#X msg 203 1607 0;
#X obj 204 1461 r reset;
#X obj 333 1315 loadbang;
#X text 198 1436 noteoffs;
#X text 198 1445 when STOP;
#X text 197 1426 force;
#X obj 237 1604 switch;
#X obj 236 1565 + 1.5;
#X obj 294 1598 switch;
#X obj 403 1364 humanizer_slave, f 17;
#X floatatom 411 1527 5 0 0 0 - - -, f 5;
#X floatatom 448 1527 5 0 0 0 - - -, f 5;
#X obj 422 1657 noteout, f 17;
#X msg 383 1614 0;
#X obj 384 1468 r reset;
#X obj 513 1322 loadbang;
#X text 378 1443 noteoffs;
#X text 378 1452 when STOP;
#X text 377 1433 force;
#X obj 417 1611 switch;
#X obj 416 1572 + 1.5;
#X obj 474 1605 switch;
#X obj 572 1359 humanizer_slave, f 17;
#X floatatom 580 1522 5 0 0 0 - - -, f 5;
#X floatatom 617 1522 5 0 0 0 - - -, f 5;
#X obj 591 1652 noteout, f 17;
#X msg 552 1609 0;
#X obj 553 1463 r reset;
#X obj 682 1317 loadbang;
#X text 547 1438 noteoffs;
#X text 547 1447 when STOP;
#X text 546 1428 force;
#X obj 586 1606 switch;
#X obj 585 1567 + 1.5;
#X obj 643 1600 switch;
#X obj 751 1360 humanizer_slave, f 17;
#X floatatom 759 1523 5 0 0 0 - - -, f 5;
#X floatatom 796 1523 5 0 0 0 - - -, f 5;
#X obj 770 1653 noteout, f 17;
#X msg 731 1610 0;
#X obj 732 1464 r reset;
#X obj 861 1318 loadbang;
#X text 726 1439 noteoffs;
#X text 726 1448 when STOP;
#X text 725 1429 force;
#X obj 765 1607 switch;
#X obj 764 1568 + 1.5;
#X obj 822 1601 switch;
#X obj 923 1356 humanizer_slave, f 17;
#X floatatom 931 1519 5 0 0 0 - - -, f 5;
#X floatatom 968 1519 5 0 0 0 - - -, f 5;
#X obj 942 1649 noteout, f 17;
#X msg 903 1606 0;
#X obj 904 1460 r reset;
#X obj 1033 1314 loadbang;
#X text 898 1435 noteoffs;
#X text 898 1444 when STOP;
#X text 897 1425 force;
#X obj 937 1603 switch;
#X obj 936 1564 + 1.5;
#X obj 994 1597 switch;
#X obj 1097 1356 humanizer_slave, f 17;
#X floatatom 1105 1519 5 0 0 0 - - -, f 5;
#X floatatom 1142 1519 5 0 0 0 - - -, f 5;
#X obj 1116 1649 noteout, f 17;
#X msg 1077 1606 0;
#X obj 1078 1460 r reset;
#X obj 1207 1314 loadbang;
#X text 1072 1435 noteoffs;
#X text 1072 1444 when STOP;
#X text 1071 1425 force;
#X obj 1111 1603 switch;
#X obj 1110 1564 + 1.5;
#X obj 1168 1597 switch;
#X obj 1273 1355 humanizer_slave, f 17;
#X floatatom 1281 1518 5 0 0 0 - - -, f 5;
#X floatatom 1318 1518 5 0 0 0 - - -, f 5;
#X obj 1292 1648 noteout, f 17;
#X msg 1253 1605 0;
#X obj 1254 1459 r reset;
#X obj 1383 1313 loadbang;
#X text 1248 1434 noteoffs;
#X text 1248 1443 when STOP;
#X text 1247 1424 force;
#X obj 1287 1602 switch;
#X obj 1286 1563 + 1.5;
#X obj 1344 1596 switch;
#X text 218 869 CH2;
#X obj 219 887 notein 2;
#X obj 288 887 r 2ic;
#X obj 331 887 r 2me;
#X msg 339 932 2;
#X obj 313 1002 s 2e;
#X obj 242 1140 r 2on;
#X text 396 875 CH3;
#X obj 397 894 notein 3;
#X obj 466 893 r 3ic;
#X obj 509 893 r 3me;
#X msg 517 937 3;
#X obj 491 1008 s 3e;
#X obj 420 1145 r 3on;
#X text 569 870 CH4;
#X obj 570 889 notein 4;
#X obj 639 888 r 4ic;
#X obj 682 888 r 4me;
#X msg 690 933 4;
#X obj 664 1003 s 4e;
#X obj 593 1141 r 4on;
#X obj 743 884 notein 5;
#X text 956 859 CH5;
#X obj 812 883 r 5ic;
#X obj 855 883 r 5me;
#X msg 863 928 5;
#X obj 837 998 s 5e;
#X obj 766 1136 r 5on;
#X text 918 866 CH6;
#X obj 919 885 notein 6;
#X obj 983 884 r 6ic;
#X obj 1026 884 r 6me;
#X msg 1039 928 6;
#X obj 1013 999 s 6e;
#X obj 942 1137 r 6on;
#X text 1213 866 CH7;
#X obj 1089 886 notein 7;
#X obj 1158 885 r 7ic;
#X obj 1201 885 r 7me;
#X msg 1214 930 7;
#X obj 1188 1000 s 7e;
#X obj 1117 1138 r 7on;
#X text 1393 865 CH8;
#X obj 1338 883 r 8ic;
#X obj 1269 885 notein 8;
#X obj 1381 884 r 8me;
#X msg 1394 929 8;
#X obj 1368 999 s 8e;
#X obj 1296 1137 r 8on;
#X text 26 1275 CH9;
#X obj 27 1293 notein 9;
#X obj 96 1292 r 9ic;
#X obj 139 1293 r 9me;
#X msg 147 1338 9;
#X obj 121 1408 s 9e;
#X obj 50 1546 r 9on;
#X text 212 1272 CH10;
#X obj 213 1291 notein 10;
#X obj 282 1290 r 10ic;
#X obj 325 1290 r 10me;
#X msg 333 1335 10;
#X obj 307 1405 s 10e;
#X obj 236 1543 r 10on;
#X text 392 1279 CH11;
#X obj 393 1298 notein 11;
#X obj 462 1297 r 11ic;
#X obj 505 1297 r 11me;
#X msg 513 1342 11;
#X obj 488 1412 s 11e;
#X obj 416 1549 r 11on;
#X text 561 1274 CH12;
#X obj 562 1293 notein 12;
#X obj 631 1292 r 12ic;
#X obj 674 1292 r 12me;
#X msg 682 1337 12;
#X obj 656 1407 s 12e;
#X obj 585 1545 r 12on;
#X text 740 1275 CH13;
#X obj 741 1294 notein 13;
#X obj 810 1293 r 13ic;
#X obj 853 1293 r 13me;
#X msg 861 1337 13;
#X obj 835 1408 s 13e;
#X obj 764 1546 r 13on;
#X obj 913 1290 notein 14;
#X obj 982 1289 r 14ic;
#X obj 1025 1289 r 14me;
#X msg 1033 1335 14;
#X obj 1007 1404 s 14e;
#X obj 937 1542 r 14on;
#X obj 1087 1290 notein 15;
#X obj 1155 1289 r 15ic;
#X obj 1199 1289 r 15me;
#X msg 1207 1333 15;
#X obj 1181 1403 s 15e;
#X obj 1110 1542 r 15on;
#X text 1262 1270 CH16;
#X obj 1263 1289 notein 16;
#X obj 1332 1287 r 16ic;
#X obj 1375 1288 r 16me;
#X msg 1383 1333 16;
#X obj 1357 1403 s 16e;
#X obj 1287 1540 r 16on;
#X text 1086 1271 CH15;
#X text 911 1271 CH14;
#X obj 43 164 t b b;
#X obj 707 67 t b b;
#N canvas 0 22 450 300 (subpatch) 0;
#X array ch9_error 100 float 4 black black;
#X coords 0 80 99 -80 103 144 1;
#X restore 282 512 graph;
#X floatatom 340 125 6 0 0 0 - 1e -, f 6;
#X floatatom 599 121 6 0 0 0 - 2e -, f 6;
#X floatatom 854 124 6 0 0 0 - 3e -, f 6;
#X floatatom 1109 123 6 0 0 0 - 4e -, f 6;
#X floatatom 341 316 6 0 0 0 - 5e -, f 6;
#X floatatom 599 307 6 0 0 0 - 6e -, f 6;
#X floatatom 855 308 6 0 0 0 - 7e -, f 6;
#X floatatom 1111 312 6 0 0 0 - 8e -, f 6;
#X floatatom 342 494 6 0 0 0 - 9e -, f 6;
#X floatatom 602 491 6 0 0 0 - 10e -, f 6;
#X floatatom 861 494 6 0 0 0 - 11e -, f 6;
#X floatatom 1120 495 6 0 0 0 - 12e -, f 6;
#X floatatom 352 673 6 0 0 0 - 13e -, f 6;
#X floatatom 606 674 6 0 0 0 - 14e -, f 6;
#X floatatom 870 674 6 0 0 0 - 15e -, f 6;
#X floatatom 1126 681 6 0 0 0 - 16e -, f 6;
#X floatatom 1261 555 9 0 0 0 - spread -, f 9;
#X floatatom 1254 350 8 0 0 0 - meanmean -, f 8;
#X text 1063 849 comment;
#X text 1207 214 from the original tempo;
#X text 1208 225 before sending a click;
#X text 1207 237 to the virtual monitor send;
#X text 1206 303 Panic button: forces slaves;
#X text 1205 315 to return to the click;
#X text 1205 324 instantly;
#X text 1209 514 Mean of all the offsets [ms];
#X text 1203 717 Maximum time distance between slaves;
#X text 1200 742 Motor Error: musician skill;
#X text 1198 779 Iclock error: how well keeps tempo;
#X text 1199 804 Listening: if he listens to;
#X text 1265 815 the virtual monitor send;
#X text 1200 833 Influence: volume in the virtual;
#X text 1267 845 monitor send mix;
#X text 1276 767 5ms -> bad musician;
#X text 1276 790 5ms works well;
#X text 1276 755 0.3ms -> professional;
#X text 1317 557 [ms];
#X text 1305 351 [ms];
#X text 1208 203 Sets the allowed deviation;
#N canvas 415 23 450 300 get_live_clock_draw_graphs 0;
#X obj 92 238 timer;
#X floatatom 93 260 5 0 0 0 - - -, f 5;
#X obj 79 207 t b b;
#X obj 93 281 expr 60000/$f1;
#X floatatom 93 303 5 0 0 0 - - -, f 5;
#X obj 166 211 bng 15 250 50 0 empty empty empty 17 7 0 10 -262144
-1 -1;
#X obj 93 324 s bpm;
#X obj 41 84 sel 252;
#X obj 118 156 f, f 5;
#X obj 176 155 +;
#X obj 118 100 t b f;
#X obj 115 182 sel 1;
#X msg 88 122 0, f 1;
#X obj 69 176 sel 23;
#X obj 214 343 f;
#X obj 266 391 s iarray;
#X floatatom 290 371 5 0 0 0 - - -, f 5;
#X obj 257 306 t b f;
#X obj 243 343 +;
#X obj 201 185 == 0;
#X obj 241 185 == 12;
#X msg 47 342 0;
#X obj 25 376 delay 300;
#X obj 25 398 s reset;
#X obj 117 79 == 248;
#X obj 183 387 sel 100;
#X text 74 19 TRANSPORT INFO;
#X text 20 414 reset slave integrators;
#X text 21 425 reset tempo counters;
#X text 21 436 when transport STOPS;
#X text 202 410 Array drawing index;
#X text 278 185 each 1/2 beat;
#X text 128 240 time each beat;
#X text 183 280 to bpm;
#X text 20 63 transport stops;
#X text 157 79 transport playing \, gives 248 at rate 24/beat;
#X obj 554 41 r iarray;
#X obj 519 41 r 1e;
#X obj 494 64 tabwrite ch1_error;
#X obj 491 42 f;
#X obj 556 89 r iarray;
#X obj 493 90 f;
#X obj 557 137 r iarray;
#X obj 494 138 f;
#X obj 559 182 r iarray;
#X obj 496 183 f;
#X obj 559 228 r iarray;
#X obj 496 229 f;
#X obj 559 273 r iarray;
#X obj 496 274 f;
#X obj 561 320 r iarray;
#X obj 498 321 f;
#X obj 562 365 r iarray;
#X obj 499 366 f;
#X obj 701 43 r iarray;
#X obj 638 44 f;
#X obj 704 88 r iarray;
#X obj 641 89 f;
#X obj 705 135 r iarray;
#X obj 642 136 f;
#X obj 708 182 r iarray;
#X obj 645 183 f;
#X obj 709 228 r iarray;
#X obj 646 229 f;
#X obj 708 273 r iarray;
#X obj 645 274 f;
#X obj 709 317 r iarray;
#X obj 646 318 f;
#X obj 707 363 r iarray;
#X obj 644 364 f;
#X obj 521 89 r 2e;
#X obj 522 137 r 3e;
#X obj 524 182 r 4e;
#X obj 524 228 r 5e;
#X obj 524 273 r 6e;
#X obj 526 320 r 7e;
#X obj 527 365 r 8e;
#X obj 496 112 tabwrite ch2_error;
#X obj 497 160 tabwrite ch3_error;
#X obj 499 205 tabwrite ch4_error;
#X obj 499 251 tabwrite ch5_error;
#X obj 499 296 tabwrite ch6_error;
#X obj 501 343 tabwrite ch7_error;
#X obj 502 388 tabwrite ch8_error;
#X obj 666 43 r 9e;
#X obj 641 66 tabwrite ch9_error;
#X obj 669 88 r 10e;
#X obj 644 111 tabwrite ch10_error;
#X obj 670 135 r 11e;
#X obj 645 158 tabwrite ch11_error;
#X obj 673 182 r 12e;
#X obj 648 205 tabwrite ch12_error;
#X obj 674 228 r 13e;
#X obj 649 251 tabwrite ch13_error;
#X obj 673 272 r 14e;
#X obj 648 296 tabwrite ch14_error;
#X obj 674 317 r 15e;
#X obj 649 340 tabwrite ch15_error;
#X obj 672 363 r 16e;
#X obj 646 386 tabwrite ch16_error;
#X floatatom 241 207 5 0 0 0 - - -, f 5;
#X floatatom 201 207 5 0 0 0 - - -, f 5;
#X obj 389 219 sel 1;
#X obj 517 455 tabwrite MEAN;
#X obj 515 429 f;
#X obj 562 428 r iarray;
#X obj 541 410 r meanmean;
#X obj 736 423 r iarray;
#X obj 651 460 tabwrite SPREAD;
#X obj 643 432 f;
#X obj 675 415 r spread;
#X obj 87 39 midirealtimein;
#X connect 0 0 1 0;
#X connect 1 0 3 0;
#X connect 2 0 0 0;
#X connect 2 1 0 1;
#X connect 2 1 5 0;
#X connect 3 0 4 0;
#X connect 4 0 6 0;
#X connect 7 0 12 0;
#X connect 7 0 21 0;
#X connect 7 0 22 0;
#X connect 8 0 9 0;
#X connect 8 0 11 0;
#X connect 8 0 13 0;
#X connect 8 0 19 0;
#X connect 8 0 20 0;
#X connect 9 0 8 1;
#X connect 10 0 8 0;
#X connect 10 1 9 1;
#X connect 11 0 2 0;
#X connect 12 0 8 1;
#X connect 13 0 12 0;
#X connect 14 0 16 0;
#X connect 14 0 18 0;
#X connect 14 0 15 0;
#X connect 14 0 25 0;
#X connect 17 0 14 0;
#X connect 17 1 18 1;
#X connect 18 0 14 1;
#X connect 19 0 17 0;
#X connect 19 0 101 0;
#X connect 20 0 17 0;
#X connect 20 0 100 0;
#X connect 21 0 14 1;
#X connect 22 0 23 0;
#X connect 24 0 10 0;
#X connect 25 0 21 0;
#X connect 36 0 38 1;
#X connect 37 0 39 1;
#X connect 39 0 38 0;
#X connect 40 0 77 1;
#X connect 41 0 77 0;
#X connect 42 0 78 1;
#X connect 43 0 78 0;
#X connect 44 0 79 1;
#X connect 45 0 79 0;
#X connect 46 0 80 1;
#X connect 47 0 80 0;
#X connect 48 0 81 1;
#X connect 49 0 81 0;
#X connect 50 0 82 1;
#X connect 51 0 82 0;
#X connect 52 0 83 1;
#X connect 53 0 83 0;
#X connect 54 0 85 1;
#X connect 55 0 85 0;
#X connect 56 0 87 1;
#X connect 57 0 87 0;
#X connect 58 0 89 1;
#X connect 59 0 89 0;
#X connect 60 0 91 1;
#X connect 61 0 91 0;
#X connect 62 0 93 1;
#X connect 63 0 93 0;
#X connect 64 0 95 1;
#X connect 65 0 95 0;
#X connect 66 0 97 1;
#X connect 67 0 97 0;
#X connect 68 0 99 1;
#X connect 69 0 99 0;
#X connect 70 0 41 1;
#X connect 71 0 43 1;
#X connect 72 0 45 1;
#X connect 73 0 47 1;
#X connect 74 0 49 1;
#X connect 75 0 51 1;
#X connect 76 0 53 1;
#X connect 84 0 55 1;
#X connect 86 0 57 1;
#X connect 88 0 59 1;
#X connect 90 0 61 1;
#X connect 92 0 63 1;
#X connect 94 0 65 1;
#X connect 96 0 67 1;
#X connect 98 0 69 1;
#X connect 100 0 102 0;
#X connect 101 0 102 0;
#X connect 102 0 39 0;
#X connect 102 0 41 0;
#X connect 102 0 43 0;
#X connect 102 0 45 0;
#X connect 102 0 47 0;
#X connect 102 0 49 0;
#X connect 102 0 51 0;
#X connect 102 0 53 0;
#X connect 102 0 69 0;
#X connect 102 0 67 0;
#X connect 102 0 65 0;
#X connect 102 0 63 0;
#X connect 102 0 61 0;
#X connect 102 0 59 0;
#X connect 102 0 57 0;
#X connect 102 0 55 0;
#X connect 102 0 104 0;
#X connect 102 0 109 0;
#X connect 104 0 103 0;
#X connect 105 0 103 1;
#X connect 106 0 104 1;
#X connect 107 0 108 1;
#X connect 109 0 108 0;
#X connect 110 0 109 1;
#X connect 111 0 7 0;
#X connect 111 0 24 0;
#X restore 24 17 pd get_live_clock_draw_graphs;
#X connect 2 0 31 0;
#X connect 4 0 3 0;
#X connect 4 0 43 0;
#X connect 4 0 48 0;
#X connect 4 0 576 0;
#X connect 4 0 577 0;
#X connect 5 0 6 0;
#X connect 5 1 7 0;
#X connect 5 2 236 0;
#X connect 6 0 273 2;
#X connect 7 0 9 1;
#X connect 7 0 275 2;
#X connect 8 0 5 0;
#X connect 8 0 273 1;
#X connect 8 1 5 1;
#X connect 8 1 275 1;
#X connect 13 0 9 1;
#X connect 14 0 13 0;
#X connect 14 0 6 0;
#X connect 15 0 16 0;
#X connect 16 0 9 2;
#X connect 16 0 5 4;
#X connect 22 0 10 0;
#X connect 24 0 23 0;
#X connect 27 0 25 0;
#X connect 30 0 28 0;
#X connect 33 0 34 0;
#X connect 35 0 36 0;
#X connect 37 0 38 0;
#X connect 43 0 17 0;
#X connect 48 0 47 0;
#X connect 56 0 54 0;
#X connect 58 0 57 0;
#X connect 61 0 59 0;
#X connect 64 0 62 0;
#X connect 69 0 67 0;
#X connect 71 0 70 0;
#X connect 74 0 72 0;
#X connect 77 0 75 0;
#X connect 84 0 82 0;
#X connect 86 0 85 0;
#X connect 89 0 87 0;
#X connect 92 0 90 0;
#X connect 96 0 94 0;
#X connect 98 0 97 0;
#X connect 101 0 99 0;
#X connect 104 0 102 0;
#X connect 108 0 106 0;
#X connect 110 0 109 0;
#X connect 113 0 111 0;
#X connect 116 0 114 0;
#X connect 120 0 118 0;
#X connect 122 0 121 0;
#X connect 125 0 123 0;
#X connect 128 0 126 0;
#X connect 132 0 130 0;
#X connect 134 0 133 0;
#X connect 137 0 135 0;
#X connect 140 0 138 0;
#X connect 144 0 142 0;
#X connect 146 0 145 0;
#X connect 149 0 147 0;
#X connect 152 0 150 0;
#X connect 156 0 154 0;
#X connect 158 0 157 0;
#X connect 161 0 159 0;
#X connect 164 0 162 0;
#X connect 168 0 166 0;
#X connect 170 0 169 0;
#X connect 173 0 171 0;
#X connect 176 0 174 0;
#X connect 179 0 257 0;
#X connect 180 0 256 0;
#X connect 182 0 255 0;
#X connect 184 0 254 0;
#X connect 187 0 261 0;
#X connect 188 0 260 0;
#X connect 190 0 259 0;
#X connect 192 0 258 0;
#X connect 195 0 262 0;
#X connect 196 0 263 0;
#X connect 198 0 264 0;
#X connect 200 0 265 0;
#X connect 203 0 269 0;
#X connect 204 0 268 0;
#X connect 206 0 267 0;
#X connect 208 0 266 0;
#X connect 234 0 5 2;
#X connect 235 0 5 3;
#X connect 238 0 35 0;
#X connect 238 0 37 0;
#X connect 239 0 86 0;
#X connect 239 0 84 0;
#X connect 240 0 134 0;
#X connect 240 0 132 0;
#X connect 241 0 179 0;
#X connect 241 0 180 0;
#X connect 242 0 188 0;
#X connect 242 0 187 0;
#X connect 243 0 196 0;
#X connect 243 0 195 0;
#X connect 244 0 158 0;
#X connect 244 0 156 0;
#X connect 245 0 146 0;
#X connect 245 0 144 0;
#X connect 246 0 98 0;
#X connect 246 0 96 0;
#X connect 247 0 110 0;
#X connect 247 0 108 0;
#X connect 248 0 24 0;
#X connect 248 0 22 0;
#X connect 249 0 58 0;
#X connect 249 0 56 0;
#X connect 250 0 71 0;
#X connect 250 0 69 0;
#X connect 251 0 122 0;
#X connect 251 0 120 0;
#X connect 252 0 170 0;
#X connect 252 0 168 0;
#X connect 253 0 204 0;
#X connect 253 0 203 0;
#X connect 270 0 271 0;
#X connect 271 0 45 0;
#X connect 272 0 274 0;
#X connect 273 0 9 0;
#X connect 274 0 273 0;
#X connect 274 0 275 0;
#X connect 275 0 9 1;
#X connect 276 0 277 0;
#X connect 276 1 278 0;
#X connect 276 2 476 0;
#X connect 277 0 286 2;
#X connect 278 0 279 1;
#X connect 278 0 288 2;
#X connect 280 0 279 1;
#X connect 281 0 280 0;
#X connect 281 0 277 0;
#X connect 282 0 475 0;
#X connect 286 0 279 0;
#X connect 287 0 286 0;
#X connect 287 0 288 0;
#X connect 288 0 279 1;
#X connect 289 0 290 0;
#X connect 289 1 291 0;
#X connect 289 2 483 0;
#X connect 290 0 299 2;
#X connect 291 0 292 1;
#X connect 291 0 301 2;
#X connect 293 0 292 1;
#X connect 294 0 293 0;
#X connect 294 0 290 0;
#X connect 295 0 482 0;
#X connect 299 0 292 0;
#X connect 300 0 299 0;
#X connect 300 0 301 0;
#X connect 301 0 292 1;
#X connect 302 0 303 0;
#X connect 302 1 304 0;
#X connect 302 2 490 0;
#X connect 303 0 312 2;
#X connect 304 0 305 1;
#X connect 304 0 314 2;
#X connect 306 0 305 1;
#X connect 307 0 306 0;
#X connect 307 0 303 0;
#X connect 308 0 489 0;
#X connect 312 0 305 0;
#X connect 313 0 312 0;
#X connect 313 0 314 0;
#X connect 314 0 305 1;
#X connect 315 0 316 0;
#X connect 315 1 317 0;
#X connect 315 2 497 0;
#X connect 316 0 325 2;
#X connect 317 0 318 1;
#X connect 317 0 327 2;
#X connect 319 0 318 1;
#X connect 320 0 319 0;
#X connect 320 0 316 0;
#X connect 321 0 496 0;
#X connect 325 0 318 0;
#X connect 326 0 325 0;
#X connect 326 0 327 0;
#X connect 327 0 318 1;
#X connect 328 0 329 0;
#X connect 328 1 330 0;
#X connect 328 2 504 0;
#X connect 329 0 338 2;
#X connect 330 0 331 1;
#X connect 330 0 340 2;
#X connect 332 0 331 1;
#X connect 333 0 332 0;
#X connect 333 0 329 0;
#X connect 334 0 503 0;
#X connect 338 0 331 0;
#X connect 339 0 338 0;
#X connect 339 0 340 0;
#X connect 340 0 331 1;
#X connect 341 0 342 0;
#X connect 341 1 343 0;
#X connect 341 2 511 0;
#X connect 342 0 351 2;
#X connect 343 0 344 1;
#X connect 343 0 353 2;
#X connect 345 0 344 1;
#X connect 346 0 345 0;
#X connect 346 0 342 0;
#X connect 347 0 510 0;
#X connect 351 0 344 0;
#X connect 352 0 351 0;
#X connect 352 0 353 0;
#X connect 353 0 344 1;
#X connect 354 0 355 0;
#X connect 354 1 356 0;
#X connect 354 2 518 0;
#X connect 355 0 364 2;
#X connect 356 0 357 1;
#X connect 356 0 366 2;
#X connect 358 0 357 1;
#X connect 359 0 358 0;
#X connect 359 0 355 0;
#X connect 360 0 517 0;
#X connect 364 0 357 0;
#X connect 365 0 364 0;
#X connect 365 0 366 0;
#X connect 366 0 357 1;
#X connect 367 0 368 0;
#X connect 367 1 369 0;
#X connect 367 2 525 0;
#X connect 368 0 377 2;
#X connect 369 0 370 1;
#X connect 369 0 379 2;
#X connect 371 0 370 1;
#X connect 372 0 371 0;
#X connect 372 0 368 0;
#X connect 373 0 524 0;
#X connect 377 0 370 0;
#X connect 378 0 377 0;
#X connect 378 0 379 0;
#X connect 379 0 370 1;
#X connect 380 0 381 0;
#X connect 380 1 382 0;
#X connect 380 2 532 0;
#X connect 381 0 390 2;
#X connect 382 0 383 1;
#X connect 382 0 392 2;
#X connect 384 0 383 1;
#X connect 385 0 384 0;
#X connect 385 0 381 0;
#X connect 386 0 531 0;
#X connect 390 0 383 0;
#X connect 391 0 390 0;
#X connect 391 0 392 0;
#X connect 392 0 383 1;
#X connect 393 0 394 0;
#X connect 393 1 395 0;
#X connect 393 2 539 0;
#X connect 394 0 403 2;
#X connect 395 0 396 1;
#X connect 395 0 405 2;
#X connect 397 0 396 1;
#X connect 398 0 397 0;
#X connect 398 0 394 0;
#X connect 399 0 538 0;
#X connect 403 0 396 0;
#X connect 404 0 403 0;
#X connect 404 0 405 0;
#X connect 405 0 396 1;
#X connect 406 0 407 0;
#X connect 406 1 408 0;
#X connect 406 2 546 0;
#X connect 407 0 416 2;
#X connect 408 0 409 1;
#X connect 408 0 418 2;
#X connect 410 0 409 1;
#X connect 411 0 410 0;
#X connect 411 0 407 0;
#X connect 412 0 545 0;
#X connect 416 0 409 0;
#X connect 417 0 416 0;
#X connect 417 0 418 0;
#X connect 418 0 409 1;
#X connect 419 0 420 0;
#X connect 419 1 421 0;
#X connect 419 2 553 0;
#X connect 420 0 429 2;
#X connect 421 0 422 1;
#X connect 421 0 431 2;
#X connect 423 0 422 1;
#X connect 424 0 423 0;
#X connect 424 0 420 0;
#X connect 425 0 552 0;
#X connect 429 0 422 0;
#X connect 430 0 429 0;
#X connect 430 0 431 0;
#X connect 431 0 422 1;
#X connect 432 0 433 0;
#X connect 432 1 434 0;
#X connect 432 2 559 0;
#X connect 433 0 442 2;
#X connect 434 0 435 1;
#X connect 434 0 444 2;
#X connect 436 0 435 1;
#X connect 437 0 436 0;
#X connect 437 0 433 0;
#X connect 438 0 558 0;
#X connect 442 0 435 0;
#X connect 443 0 442 0;
#X connect 443 0 444 0;
#X connect 444 0 435 1;
#X connect 445 0 446 0;
#X connect 445 1 447 0;
#X connect 445 2 565 0;
#X connect 446 0 455 2;
#X connect 447 0 448 1;
#X connect 447 0 457 2;
#X connect 449 0 448 1;
#X connect 450 0 449 0;
#X connect 450 0 446 0;
#X connect 451 0 564 0;
#X connect 455 0 448 0;
#X connect 456 0 455 0;
#X connect 456 0 457 0;
#X connect 457 0 448 1;
#X connect 458 0 459 0;
#X connect 458 1 460 0;
#X connect 458 2 572 0;
#X connect 459 0 468 2;
#X connect 460 0 461 1;
#X connect 460 0 470 2;
#X connect 462 0 461 1;
#X connect 463 0 462 0;
#X connect 463 0 459 0;
#X connect 464 0 571 0;
#X connect 468 0 461 0;
#X connect 469 0 468 0;
#X connect 469 0 470 0;
#X connect 470 0 461 1;
#X connect 472 0 276 0;
#X connect 472 0 286 1;
#X connect 472 1 276 1;
#X connect 472 1 288 1;
#X connect 473 0 276 2;
#X connect 474 0 276 3;
#X connect 475 0 279 2;
#X connect 475 0 276 4;
#X connect 477 0 287 0;
#X connect 479 0 289 0;
#X connect 479 0 299 1;
#X connect 479 1 289 1;
#X connect 479 1 301 1;
#X connect 480 0 289 2;
#X connect 481 0 289 3;
#X connect 482 0 292 2;
#X connect 482 0 289 4;
#X connect 484 0 300 0;
#X connect 486 0 302 0;
#X connect 486 0 312 1;
#X connect 486 1 302 1;
#X connect 486 1 314 1;
#X connect 487 0 302 2;
#X connect 488 0 302 3;
#X connect 489 0 305 2;
#X connect 489 0 302 4;
#X connect 491 0 313 0;
#X connect 492 0 315 0;
#X connect 492 0 325 1;
#X connect 492 1 315 1;
#X connect 492 1 327 1;
#X connect 494 0 315 2;
#X connect 495 0 315 3;
#X connect 496 0 318 2;
#X connect 496 0 315 4;
#X connect 498 0 326 0;
#X connect 500 0 328 0;
#X connect 500 0 338 1;
#X connect 500 1 328 1;
#X connect 500 1 340 1;
#X connect 501 0 328 2;
#X connect 502 0 328 3;
#X connect 503 0 331 2;
#X connect 503 0 328 4;
#X connect 505 0 339 0;
#X connect 507 0 341 0;
#X connect 507 0 351 1;
#X connect 507 1 341 1;
#X connect 507 1 353 1;
#X connect 508 0 341 2;
#X connect 509 0 341 3;
#X connect 510 0 344 2;
#X connect 510 0 341 4;
#X connect 512 0 352 0;
#X connect 514 0 354 2;
#X connect 515 0 354 0;
#X connect 515 0 364 1;
#X connect 515 1 354 1;
#X connect 515 1 366 1;
#X connect 516 0 354 3;
#X connect 517 0 357 2;
#X connect 517 0 354 4;
#X connect 519 0 365 0;
#X connect 521 0 367 0;
#X connect 521 0 377 1;
#X connect 521 1 367 1;
#X connect 521 1 379 1;
#X connect 522 0 367 2;
#X connect 523 0 367 3;
#X connect 524 0 370 2;
#X connect 524 0 367 4;
#X connect 526 0 378 0;
#X connect 528 0 380 0;
#X connect 528 0 390 1;
#X connect 528 1 380 1;
#X connect 528 1 392 1;
#X connect 529 0 380 2;
#X connect 530 0 380 3;
#X connect 531 0 383 2;
#X connect 531 0 380 4;
#X connect 533 0 391 0;
#X connect 535 0 393 0;
#X connect 535 0 403 1;
#X connect 535 1 393 1;
#X connect 535 1 405 1;
#X connect 536 0 393 2;
#X connect 537 0 393 3;
#X connect 538 0 396 2;
#X connect 538 0 393 4;
#X connect 540 0 404 0;
#X connect 542 0 406 0;
#X connect 542 0 416 1;
#X connect 542 1 406 1;
#X connect 542 1 418 1;
#X connect 543 0 406 2;
#X connect 544 0 406 3;
#X connect 545 0 409 2;
#X connect 545 0 406 4;
#X connect 547 0 417 0;
#X connect 549 0 419 0;
#X connect 549 0 429 1;
#X connect 549 1 419 1;
#X connect 549 1 431 1;
#X connect 550 0 419 2;
#X connect 551 0 419 3;
#X connect 552 0 422 2;
#X connect 552 0 419 4;
#X connect 554 0 430 0;
#X connect 555 0 432 0;
#X connect 555 0 442 1;
#X connect 555 1 432 1;
#X connect 555 1 444 1;
#X connect 556 0 432 2;
#X connect 557 0 432 3;
#X connect 558 0 435 2;
#X connect 558 0 432 4;
#X connect 560 0 443 0;
#X connect 561 0 445 0;
#X connect 561 0 455 1;
#X connect 561 1 445 1;
#X connect 561 1 457 1;
#X connect 562 0 445 2;
#X connect 563 0 445 3;
#X connect 564 0 448 2;
#X connect 564 0 445 4;
#X connect 566 0 456 0;
#X connect 568 0 458 0;
#X connect 568 0 468 1;
#X connect 568 1 458 1;
#X connect 568 1 470 1;
#X connect 569 0 458 2;
#X connect 570 0 458 3;
#X connect 571 0 461 2;
#X connect 571 0 458 4;
#X connect 573 0 469 0;
#X connect 576 0 238 0;
#X connect 576 0 239 0;
#X connect 576 0 240 0;
#X connect 576 0 241 0;
#X connect 576 0 248 0;
#X connect 576 0 246 0;
#X connect 576 0 245 0;
#X connect 576 0 242 0;
#X connect 576 1 238 0;
#X connect 576 1 239 0;
#X connect 576 1 240 0;
#X connect 576 1 241 0;
#X connect 576 1 248 0;
#X connect 576 1 246 0;
#X connect 576 1 245 0;
#X connect 576 1 242 0;
#X connect 577 0 249 0;
#X connect 577 0 247 0;
#X connect 577 0 244 0;
#X connect 577 0 243 0;
#X connect 577 0 250 0;
#X connect 577 0 251 0;
#X connect 577 0 252 0;
#X connect 577 0 253 0;
#X connect 577 1 249 0;
#X connect 577 1 247 0;
#X connect 577 1 244 0;
#X connect 577 1 243 0;
#X connect 577 1 250 0;
#X connect 577 1 251 0;
#X connect 577 1 252 0;
#X connect 577 1 253 0;
#X coords 0 -1 1 1 1300 771 2 129 92;
