#N canvas 0 23 1280 718 10;
#X obj 1198 89 cnv 15 233 767 empty empty MASTER\ SECTION 20 12 0 14
-233017 -66577 0;
#X obj 132 88 cnv 15 1065 768 empty empty empty 20 12 0 14 -261636
-66577 0;
#X obj 145 134 hsl 128 15 0.2 5 1 0 1me empty empty -2 -8 0 10 -262144
-1 -1 9850 1;
#X msg 222 54 \; pd dsp 1;
#X obj 225 6 loadbang;
#X obj 49 954 humanizer_slave, f 17;
#X floatatom 57 1117 5 0 0 0 - - -, f 5;
#X floatatom 94 1117 5 0 0 0 - - -, f 5;
#X obj 39 888 notein 1;
#X obj 68 1247 noteout, f 17;
#X floatatom 405 277 5 0 0 0 - - -, f 5;
#X text 180 199 iclock error [ms];
#X text 438 278 influence [0 \, 1];
#X msg 29 1204 0;
#X obj 30 1058 r reset;
#X obj 159 912 loadbang;
#X msg 159 932 1;
#X obj 286 68 s max_range;
#N canvas 0 22 450 300 (subpatch) 0;
#X array ch2_error 100 float 4 black black;
#X coords 0 80 99 -80 103 144 1;
#X restore 544 135 graph;
#X obj 24 17 get_live_clock_draw_graphs;
#X text 24 1033 noteoffs;
#X text 24 1042 when STOP;
#X text 23 1023 force;
#X obj 398 257 hsl 128 15 0 1 0 0 2in empty empty -2 -8 0 10 -262144
-1 -1 6350 1;
#X floatatom 400 237 5 0 0 0 - - -, f 5;
#X obj 399 217 hsl 128 15 0 1 0 0 2li empty empty -2 -8 0 10 -262144
-1 -1 6350 1;
#X floatatom 404 197 5 0 0 0 - - -, f 5;
#X text 438 197 iclock error [ms];
#X obj 398 177 hsl 128 15 0.4 10 1 0 2ic empty empty -2 -8 0 10 -262144
-1 -1 8900 1;
#X floatatom 404 150 5 0 0 0 - - -, f 5;
#X text 440 149 motor error [ms];
#X obj 398 131 hsl 128 15 0.2 5 1 0 2me empty empty -2 -8 0 10 -262144
-1 -1 7300 1;
#X floatatom 152 155 5 0 0 0 - - -, f 5;
#X text 184 153 motor error [ms];
#X obj 145 180 hsl 128 15 0.4 10 1 0 1ic empty empty -2 -8 0 10 -262144
-1 -1 10000 1;
#X floatatom 151 199 5 0 0 0 - - -, f 5;
#X obj 146 220 hsl 128 15 0 1 0 0 1li empty empty -2 -8 0 10 -262144
-1 -1 6350 1;
#X floatatom 151 241 5 0 0 0 - - -, f 5;
#X obj 145 263 hsl 128 15 0 1 0 0 1in empty empty -2 -8 0 10 -262144
-1 -1 6350 1;
#X floatatom 150 282 5 0 0 0 - - -, f 5;
#X text 183 281 influence [0 \, 1];
#N canvas 0 22 450 300 (subpatch) 0;
#X array ch1_error 100 float 4 black black;
#X coords 0 80 99 -80 103 144 1;
#X restore 284 138 graph;
#N canvas 0 22 450 300 (subpatch) 0;
#X array SPREAD 100 float 0 #ff0000 #0000ff;
#X coords 0 120 99 0 200 140 1;
#X restore 1215 571 graph;
#X obj 1213 261 bng 31 250 50 0 reset empty FORCE\ RESYNC 17 7 0 16
-261697 -258049 -1;
#X msg 285 47 50;
#N canvas 0 22 450 300 (subpatch) 0;
#X array MEAN 100 float 4 black #ff0000;
#X coords 0 30 99 -30 200 140 1;
#X restore 1213 365 graph;
#X obj 1211 126 bng 39 250 50 0 empty empty SENDING\ METRONOME 17 7
0 16 -261633 -1 -1;
#X text 182 239 listening [0 \, 1];
#X floatatom 1211 177 3 0.1 30 1 METRONOME_THRESHOLD - threshold,
f 3;
#X msg 1207 61 20;
#X text 38 869 CH1;
#X text 187 113 CH1;
#X text 438 111 CH2;
#X text 431 237 listening [0 \, 1];
#N canvas 0 22 450 300 (subpatch) 0;
#X array ch3_error 100 float 4 black black;
#X coords 0 80 99 -80 103 144 1;
#X restore 798 138 graph;
#X floatatom 661 275 5 0 0 0 - - -, f 5;
#X text 694 276 influence [0 \, 1];
#X obj 654 255 hsl 128 15 0 1 0 0 3in empty empty -2 -8 0 10 -262144
-1 -1 6350 1;
#X floatatom 656 235 5 0 0 0 - - -, f 5;
#X obj 655 215 hsl 128 15 0 1 0 0 3li empty empty -2 -8 0 10 -262144
-1 -1 6350 1;
#X floatatom 660 195 5 0 0 0 - - -, f 5;
#X text 694 195 iclock error [ms];
#X obj 654 175 hsl 128 15 0.4 10 1 0 3ic empty empty -2 -8 0 10 -262144
-1 -1 8400 1;
#X floatatom 660 148 5 0 0 0 - - -, f 5;
#X text 696 147 motor error [ms];
#X obj 654 129 hsl 128 15 0.2 5 1 0 3me empty empty -2 -8 0 10 -262144
-1 -1 7400 1;
#X text 687 235 listening [0 \, 1];
#X text 695 111 CH3;
#X floatatom 916 280 5 0 0 0 - - -, f 5;
#X text 949 281 influence [0 \, 1];
#X obj 909 260 hsl 128 15 0 1 0 0 4in empty empty -2 -8 0 10 -262144
-1 -1 6350 1;
#X floatatom 911 240 5 0 0 0 - - -, f 5;
#X obj 910 220 hsl 128 15 0 1 0 0 4li empty empty -2 -8 0 10 -262144
-1 -1 6350 1;
#X floatatom 915 200 5 0 0 0 - - -, f 5;
#X text 949 200 iclock error [ms];
#X obj 909 180 hsl 128 15 0.4 10 1 0 4ic empty empty -2 -8 0 10 -262144
-1 -1 6200 1;
#X floatatom 915 153 5 0 0 0 - - -, f 5;
#X text 951 152 motor error [ms];
#X obj 909 134 hsl 128 15 0.2 5 1 0 4me empty empty -2 -8 0 10 -262144
-1 -1 6800 1;
#X text 942 240 listening [0 \, 1];
#X text 944 114 CH4;
#N canvas 0 22 450 300 (subpatch) 0;
#X array ch4_error 100 float 4 black black;
#X coords 0 80 99 -80 103 144 1;
#X restore 1054 137 graph;
#X text 318 46 latency buffer size;
#X floatatom 151 467 5 0 0 0 - - -, f 5;
#X text 184 468 influence [0 \, 1];
#X obj 144 447 hsl 128 15 0 1 0 0 5in empty empty -2 -8 0 10 -262144
-1 -1 6350 1;
#X floatatom 146 427 5 0 0 0 - - -, f 5;
#X obj 144 407 hsl 128 15 0 1 0 0 5li empty empty -2 -8 0 10 -262144
-1 -1 6350 1;
#X floatatom 150 387 5 0 0 0 - - -, f 5;
#X text 184 387 iclock error [ms];
#X obj 144 367 hsl 128 15 0.4 10 1 0 5ic empty empty -2 -8 0 10 -262144
-1 -1 10200 1;
#X floatatom 150 340 5 0 0 0 - - -, f 5;
#X text 186 339 motor error [ms];
#X obj 144 321 hsl 128 15 0.2 5 1 0 5me empty empty -2 -8 0 10 -262144
-1 -1 9900 1;
#X text 177 427 listening [0 \, 1];
#X floatatom 406 464 5 0 0 0 - - -, f 5;
#X text 439 465 influence [0 \, 1];
#X obj 399 444 hsl 128 15 0 1 0 0 6in empty empty -2 -8 0 10 -262144
-1 -1 6350 1;
#X floatatom 401 424 5 0 0 0 - - -, f 5;
#X obj 400 404 hsl 128 15 0 1 0 0 6li empty empty -2 -8 0 10 -262144
-1 -1 6350 1;
#X floatatom 405 384 5 0 0 0 - - -, f 5;
#X text 439 384 iclock error [ms];
#X obj 399 364 hsl 128 15 0.4 10 1 0 6ic empty empty -2 -8 0 10 -262144
-1 -1 6100 1;
#X floatatom 405 337 5 0 0 0 - - -, f 5;
#X text 441 336 motor error [ms];
#X obj 399 318 hsl 128 15 0.2 5 1 0 6me empty empty -2 -8 0 10 -262144
-1 -1 5000 1;
#X text 432 424 listening [0 \, 1];
#X floatatom 662 463 5 0 0 0 - - -, f 5;
#X text 695 464 influence [0 \, 1];
#X obj 655 443 hsl 128 15 0 1 0 0 7in empty empty -2 -8 0 10 -262144
-1 -1 0 1;
#X floatatom 657 423 5 0 0 0 - - -, f 5;
#X obj 656 404 hsl 128 15 0 1 0 0 7li empty empty -2 -8 0 10 -262144
-1 -1 0 1;
#X floatatom 661 383 5 0 0 0 - - -, f 5;
#X text 695 383 iclock error [ms];
#X obj 655 363 hsl 128 15 0.4 10 1 0 7ic empty empty -2 -8 0 10 -262144
-1 -1 6300 1;
#X floatatom 661 336 5 0 0 0 - - -, f 5;
#X text 697 335 motor error [ms];
#X obj 655 317 hsl 128 15 0.2 5 1 0 7me empty empty -2 -8 0 10 -262144
-1 -1 6400 1;
#X text 688 423 listening [0 \, 1];
#X floatatom 920 469 5 0 0 0 - - -, f 5;
#X text 953 470 influence [0 \, 1];
#X obj 913 449 hsl 128 15 0 1 0 0 8in empty empty -2 -8 0 10 -262144
-1 -1 0 1;
#X floatatom 915 429 5 0 0 0 - - -, f 5;
#X obj 914 409 hsl 128 15 0 1 0 0 8li empty empty -2 -8 0 10 -262144
-1 -1 0 1;
#X floatatom 919 389 5 0 0 0 - - -, f 5;
#X text 953 389 iclock error [ms];
#X obj 913 369 hsl 128 15 0.4 10 1 0 8ic empty empty -2 -8 0 10 -262144
-1 -1 4400 1;
#X floatatom 919 342 5 0 0 0 - - -, f 5;
#X text 955 341 motor error [ms];
#X obj 913 323 hsl 128 15 0.2 5 1 1 8me empty empty -2 -8 0 10 -262144
-1 -1 5150 1;
#X text 946 429 listening [0 \, 1];
#X floatatom 147 639 5 0 0 0 - - -, f 5;
#X text 182 636 influence [0 \, 1];
#X obj 144 620 hsl 128 15 0 1 0 0 9in empty empty -2 -8 0 10 -262144
-1 -1 0 1;
#X floatatom 146 600 5 0 0 0 - - -, f 5;
#X obj 145 583 hsl 128 15 0 1 0 0 9li empty empty -2 -8 0 10 -262144
-1 -1 0 1;
#X floatatom 150 566 5 0 0 0 - - -, f 5;
#X text 185 565 iclock error [ms];
#X obj 144 549 hsl 128 15 0.4 10 1 0 9ic empty empty -2 -8 0 10 -262144
-1 -1 0 1;
#X floatatom 148 531 5 0 0 0 - - -, f 5;
#X text 184 530 motor error [ms];
#X obj 142 512 hsl 128 15 0.2 5 1 0 9me empty empty -2 -8 0 10 -262144
-1 -1 0 1;
#X text 177 600 listening [0 \, 1];
#X floatatom 406 649 5 0 0 0 - - -, f 5;
#X text 439 650 influence [0 \, 1];
#X obj 399 629 hsl 128 15 0 1 0 0 10in empty empty -2 -8 0 10 -262144
-1 -1 0 1;
#X floatatom 401 609 5 0 0 0 - - -, f 5;
#X obj 400 589 hsl 128 15 0 1 0 0 10li empty empty -2 -8 0 10 -262144
-1 -1 0 1;
#X floatatom 405 569 5 0 0 0 - - -, f 5;
#X text 439 569 iclock error [ms];
#X obj 399 549 hsl 128 15 0.4 10 1 0 10ic empty empty -2 -8 0 10 -262144
-1 -1 0 1;
#X floatatom 405 522 5 0 0 0 - - -, f 5;
#X text 441 521 motor error [ms];
#X obj 399 503 hsl 128 15 0.2 5 1 0 10me empty empty -2 -8 0 10 -262144
-1 -1 0 1;
#X text 432 609 listening [0 \, 1];
#X floatatom 664 649 5 0 0 0 - - -, f 5;
#X text 697 650 influence [0 \, 1];
#X obj 657 628 hsl 128 15 0 1 0 0 11in empty empty -2 -8 0 10 -262144
-1 -1 0 1;
#X floatatom 659 609 5 0 0 0 - - -, f 5;
#X obj 658 588 hsl 128 15 0 1 0 0 11li empty empty -2 -8 0 10 -262144
-1 -1 0 1;
#X floatatom 663 569 5 0 0 0 - - -, f 5;
#X text 697 569 iclock error [ms];
#X obj 657 549 hsl 128 15 0.4 10 1 0 11ic empty empty -2 -8 0 10 -262144
-1 -1 0 1;
#X floatatom 663 522 5 0 0 0 - - -, f 5;
#X text 699 521 motor error [ms];
#X obj 657 503 hsl 128 15 0.2 5 1 0 11me empty empty -2 -8 0 10 -262144
-1 -1 0 1;
#X text 690 609 listening [0 \, 1];
#X floatatom 924 653 5 0 0 0 - - -, f 5;
#X text 957 654 influence [0 \, 1];
#X obj 917 633 hsl 128 15 0 1 0 0 12in empty empty -2 -8 0 10 -262144
-1 -1 0 1;
#X floatatom 919 613 5 0 0 0 - - -, f 5;
#X obj 918 593 hsl 128 15 0 1 0 0 12li empty empty -2 -8 0 10 -262144
-1 -1 0 1;
#X floatatom 923 573 5 0 0 0 - - -, f 5;
#X text 957 573 iclock error [ms];
#X obj 917 553 hsl 128 15 0.4 10 1 0 12ic empty empty -2 -8 0 10 -262144
-1 -1 0 1;
#X floatatom 923 526 5 0 0 0 - - -, f 5;
#X text 959 525 motor error [ms];
#X obj 917 507 hsl 128 15 0.2 5 1 0 12me empty empty -2 -8 0 10 -262144
-1 -1 0 1;
#X text 950 613 listening [0 \, 1];
#X text 189 816 influence [0 \, 1];
#X obj 153 800 hsl 128 15 0 1 0 0 13in empty empty -2 -8 0 10 -262144
-1 -1 0 1;
#X obj 153 766 hsl 128 15 0 1 0 0 13li empty empty -2 -8 0 10 -262144
-1 -1 0 1;
#X text 189 748 iclock error [ms];
#X obj 154 730 hsl 128 15 0.4 10 1 0 13ic empty empty -2 -8 0 10 -262144
-1 -1 0 1;
#X text 186 709 motor error [ms];
#X obj 152 694 hsl 128 15 0.2 5 1 0 13me empty empty -2 -8 0 10 -262144
-1 -1 0 1;
#X text 186 781 listening [0 \, 1];
#X text 445 817 influence [0 \, 1];
#X obj 405 799 hsl 128 15 0 1 0 0 14in empty empty -2 -8 0 10 -262144
-1 -1 0 1;
#X obj 406 767 hsl 128 15 0 1 0 0 14li empty empty -2 -8 0 10 -262144
-1 -1 0 1;
#X text 445 751 iclock error [ms];
#X obj 405 734 hsl 128 15 0.4 10 1 0 14ic empty empty -2 -8 0 10 -262144
-1 -1 0 1;
#X text 451 717 motor error [ms];
#X obj 406 700 hsl 128 15 0.2 5 1 0 14me empty empty -2 -8 0 10 -262144
-1 -1 0 1;
#X text 440 783 listening [0 \, 1];
#X text 704 831 influence [0 \, 1];
#X obj 664 810 hsl 128 15 0 1 0 0 15in empty empty -2 -8 0 10 -262144
-1 -1 0 1;
#X obj 665 770 hsl 128 15 0 1 0 0 15li empty empty -2 -8 0 10 -262144
-1 -1 0 1;
#X text 704 750 iclock error [ms];
#X obj 664 730 hsl 128 15 0.4 10 1 0 15ic empty empty -2 -8 0 10 -262144
-1 -1 0 1;
#X text 706 702 motor error [ms];
#X obj 664 684 hsl 128 15 0.2 5 1 0 15me empty empty -2 -8 0 10 -262144
-1 -1 0 1;
#X text 697 790 listening [0 \, 1];
#X text 963 835 influence [0 \, 1];
#X obj 923 814 hsl 128 15 0 1 0 0 16in empty empty -2 -8 0 10 -262144
-1 -1 0 1;
#X obj 924 774 hsl 128 15 0 1 0 0 16li empty empty -2 -8 0 10 -262144
-1 -1 0 1;
#X text 963 754 iclock error [ms];
#X obj 923 734 hsl 128 15 0.4 10 1 0 16ic empty empty -2 -8 0 10 -262144
-1 -1 0 1;
#X text 965 706 motor error [ms];
#X obj 923 688 hsl 128 15 0.2 5 1 0 16me empty empty -2 -8 0 10 -262144
-1 -1 0 1;
#X text 956 794 listening [0 \, 1];
#N canvas 0 22 450 300 (subpatch) 0;
#X array ch5_error 100 float 4 black black;
#X coords 0 80 99 -80 103 144 1;
#X restore 286 329 graph;
#N canvas 0 22 450 300 (subpatch) 0;
#X array ch6_error 100 float 4 black black;
#X coords 0 80 99 -80 103 144 1;
#X restore 544 320 graph;
#N canvas 0 22 450 300 (subpatch) 0;
#X array ch7_error 100 float 4 black black;
#X coords 0 80 99 -80 103 144 1;
#X restore 799 321 graph;
#N canvas 0 22 450 300 (subpatch) 0;
#X array ch8_error 100 float 4 black black;
#X coords 0 80 99 -80 103 144 1;
#X restore 1059 325 graph;
#N canvas 0 22 450 300 (subpatch) 0;
#X array ch10_error 100 float 4 black black;
#X coords 0 80 99 -80 103 144 1;
#X restore 544 505 graph;
#N canvas 0 22 450 300 (subpatch) 0;
#X array ch11_error 100 float 5 black black;
#A 0 0 0 0 0 0 0 0 0 0 0 0 0 0 0 0 0 0 0 0 0 0 0 0 0 0 0 0 0 0 0 0
0 0 0 0 0 0 0 0 0 0 0 0 0 0 0 0 0 0 0 0 0 0 0 0 0 0 0 0 0 0 0 0 0 0
0 0 0 0 0 0 0 0 0 0 0 0 0 0 0 0 0 0 0 0 0 0 0 0 0 0 0 0 0 0 0 0 0 0
0;
#X coords 0 80 99 -80 103 144 1;
#X restore 804 508 graph;
#N canvas 0 22 450 300 (subpatch) 0;
#X array ch12_error 100 float 4 black black;
#X coords 0 80 99 -80 103 144 1;
#X restore 1061 509 graph;
#N canvas 0 22 450 300 (subpatch) 0;
#X array ch13_error 100 float 4 black black;
#X coords 0 80 99 -80 103 144 1;
#X restore 292 687 graph;
#N canvas 0 22 450 300 (subpatch) 0;
#X array ch14_error 100 float 4 black black;
#X coords 0 80 99 -80 103 144 1;
#X restore 547 688 graph;
#N canvas 0 22 450 300 (subpatch) 0;
#X array ch15_error 100 float 4 black black;
#X coords 0 80 99 -80 103 144 1;
#X restore 811 689 graph;
#N canvas 0 22 450 300 (subpatch) 0;
#X array ch16_error 100 float 4 black black;
#X coords 0 80 99 -80 103 144 1;
#X restore 1067 695 graph;
#X text 187 303 CH5;
#X text 452 298 CH6;
#X text 696 299 CH7;
#X text 954 304 CH8;
#X text 181 496 CH9;
#X text 442 487 CH10;
#X text 696 486 CH11;
#X text 957 490 CH12;
#X text 205 675 CH13;
#X text 457 682 CH14;
#X text 718 664 CH15;
#X text 958 671 CH16;
#X obj 26 44 create_tables;
#X obj 108 887 r 1ic;
#X obj 151 887 r 1me;
#X obj 133 1002 s 1e;
#X obj 26 68 calculate_mean;
#X obj 144 115 tgl 15 0 1on empty ON/OFF 17 7 0 6 -4033 -1 -1 0.5 0.5
;
#X obj 144 302 tgl 15 0 5on empty ON/OFF 17 7 0 6 -4033 -1 -1 0.5 0.5
;
#X obj 141 494 tgl 15 0 9on empty ON/OFF 17 7 0 6 -4033 -1 -1 0 0.5
;
#X obj 152 677 tgl 15 0 13on empty ON/OFF 17 7 0 6 -4033 -1 -1 0 0.5
;
#X obj 405 682 tgl 15 0 14on empty ON/OFF 17 7 0 6 -4033 -1 -1 0 0.5
;
#X obj 663 670 tgl 15 0 15on empty ON/OFF 17 7 0 6 -4033 -1 -1 0 0.5
;
#X obj 655 487 tgl 15 0 11on empty ON/OFF 17 7 0 6 -4033 -1 -1 0 0.5
;
#X obj 398 486 tgl 15 0 10on empty ON/OFF 17 7 0 6 -4033 -1 -1 0 0.5
;
#X obj 397 297 tgl 15 0 6on empty ON/OFF 17 7 0 6 -4033 -1 -1 0.5 0.5
;
#X obj 655 300 tgl 15 0 7on empty ON/OFF 17 7 0 6 -4033 -1 -1 0 0.5
;
#X obj 398 112 tgl 15 0 2on empty ON/OFF 17 7 0 6 -4033 -1 -1 0.5 0.5
;
#X obj 655 111 tgl 15 0 3on empty ON/OFF 17 7 0 6 -4033 -1 -1 0.5 0.5
;
#X obj 906 114 tgl 15 0 4on empty ON/OFF 17 7 0 6 -4033 -1 -1 0.5 0.5
;
#X obj 912 301 tgl 15 0 8on empty ON/OFF 17 7 0 6 -4033 -1 -1 0 0.5
;
#X obj 917 492 tgl 15 0 12on empty ON/OFF 17 7 0 6 -4033 -1 -1 0 0.5
;
#X obj 918 671 tgl 15 0 16on empty ON/OFF 17 7 0 6 -4033 -1 -1 0 0.5
;
#X floatatom 153 712 5 0 0 0 - - -, f 5;
#X floatatom 153 747 5 0 0 0 - - -, f 5;
#X floatatom 154 783 5 0 0 0 - - -, f 5;
#X floatatom 153 819 5 0 0 0 - - -, f 5;
#X floatatom 410 716 5 0 0 0 - - -, f 5;
#X floatatom 408 750 5 0 0 0 - - -, f 5;
#X floatatom 406 782 5 0 0 0 - - -, f 5;
#X floatatom 405 816 5 0 0 0 - - -, f 5;
#X floatatom 664 830 5 0 0 0 - - -, f 5;
#X floatatom 665 790 5 0 0 0 - - -, f 5;
#X floatatom 664 750 5 0 0 0 - - -, f 5;
#X floatatom 664 704 5 0 0 0 - - -, f 5;
#X floatatom 923 708 5 0 0 0 - - -, f 5;
#X floatatom 923 754 5 0 0 0 - - -, f 5;
#X floatatom 924 794 5 0 0 0 - - -, f 5;
#X floatatom 923 834 5 0 0 0 - - -, f 5;
#X obj 1300 12 r metronome;
#X obj 1300 34 sel 1;
#X obj 62 1140 r 1on;
#X obj 63 1201 switch;
#X obj 62 1162 + 1.5;
#X obj 120 1195 switch;
#X obj 229 954 humanizer_slave, f 17;
#X floatatom 237 1117 5 0 0 0 - - -, f 5;
#X floatatom 274 1117 5 0 0 0 - - -, f 5;
#X obj 248 1247 noteout, f 17;
#X msg 209 1204 0;
#X obj 210 1058 r reset;
#X obj 339 912 loadbang;
#X text 204 1033 noteoffs;
#X text 204 1042 when STOP;
#X text 203 1023 force;
#X obj 243 1201 switch;
#X obj 242 1162 + 1.5;
#X obj 300 1195 switch;
#X obj 407 960 humanizer_slave, f 17;
#X floatatom 415 1123 5 0 0 0 - - -, f 5;
#X floatatom 452 1123 5 0 0 0 - - -, f 5;
#X obj 426 1253 noteout, f 17;
#X msg 387 1210 0;
#X obj 388 1064 r reset;
#X obj 517 918 loadbang;
#X text 382 1039 noteoffs;
#X text 382 1048 when STOP;
#X text 381 1029 force;
#X obj 421 1207 switch;
#X obj 420 1168 + 1.5;
#X obj 478 1201 switch;
#X obj 580 955 humanizer_slave, f 17;
#X floatatom 588 1118 5 0 0 0 - - -, f 5;
#X floatatom 625 1118 5 0 0 0 - - -, f 5;
#X obj 599 1248 noteout, f 17;
#X msg 560 1205 0;
#X obj 561 1059 r reset;
#X obj 690 913 loadbang;
#X text 555 1034 noteoffs;
#X text 555 1043 when STOP;
#X text 554 1024 force;
#X obj 594 1202 switch;
#X obj 593 1163 + 1.5;
#X obj 651 1196 switch;
#X obj 753 950 humanizer_slave, f 17;
#X floatatom 761 1113 5 0 0 0 - - -, f 5;
#X floatatom 798 1113 5 0 0 0 - - -, f 5;
#X obj 772 1243 noteout, f 17;
#X msg 733 1200 0;
#X obj 734 1054 r reset;
#X obj 863 908 loadbang;
#X text 728 1029 noteoffs;
#X text 728 1038 when STOP;
#X text 727 1019 force;
#X obj 767 1197 switch;
#X obj 766 1158 + 1.5;
#X obj 824 1191 switch;
#X obj 929 951 humanizer_slave, f 17;
#X floatatom 937 1114 5 0 0 0 - - -, f 5;
#X floatatom 974 1114 5 0 0 0 - - -, f 5;
#X obj 948 1244 noteout, f 17;
#X msg 909 1201 0;
#X obj 910 1055 r reset;
#X obj 1039 909 loadbang;
#X text 904 1030 noteoffs;
#X text 904 1039 when STOP;
#X text 903 1020 force;
#X obj 943 1198 switch;
#X obj 942 1159 + 1.5;
#X obj 1000 1192 switch;
#X obj 1104 952 humanizer_slave, f 17;
#X floatatom 1112 1115 5 0 0 0 - - -, f 5;
#X floatatom 1149 1115 5 0 0 0 - - -, f 5;
#X obj 1123 1245 noteout, f 17;
#X msg 1084 1202 0;
#X obj 1085 1056 r reset;
#X obj 1214 910 loadbang;
#X text 1079 1031 noteoffs;
#X text 1079 1040 when STOP;
#X text 1078 1021 force;
#X obj 1118 1199 switch;
#X obj 1117 1160 + 1.5;
#X obj 1175 1193 switch;
#X obj 1284 951 humanizer_slave, f 17;
#X floatatom 1292 1114 5 0 0 0 - - -, f 5;
#X floatatom 1329 1114 5 0 0 0 - - -, f 5;
#X obj 1303 1244 noteout, f 17;
#X msg 1264 1201 0;
#X obj 1265 1055 r reset;
#X obj 1394 909 loadbang;
#X text 1259 1030 noteoffs;
#X text 1259 1039 when STOP;
#X text 1258 1020 force;
#X obj 1298 1198 switch;
#X obj 1297 1159 + 1.5;
#X obj 1355 1192 switch;
#X obj 37 1360 humanizer_slave, f 17;
#X floatatom 45 1523 5 0 0 0 - - -, f 5;
#X floatatom 82 1523 5 0 0 0 - - -, f 5;
#X obj 56 1653 noteout, f 17;
#X msg 17 1610 0;
#X obj 18 1464 r reset;
#X obj 147 1318 loadbang;
#X text 12 1439 noteoffs;
#X text 12 1448 when STOP;
#X text 11 1429 force;
#X obj 51 1607 switch;
#X obj 50 1568 + 1.5;
#X obj 108 1601 switch;
#X obj 223 1357 humanizer_slave, f 17;
#X floatatom 231 1520 5 0 0 0 - - -, f 5;
#X floatatom 268 1520 5 0 0 0 - - -, f 5;
#X obj 242 1650 noteout, f 17;
#X msg 203 1607 0;
#X obj 204 1461 r reset;
#X obj 333 1315 loadbang;
#X text 198 1436 noteoffs;
#X text 198 1445 when STOP;
#X text 197 1426 force;
#X obj 237 1604 switch;
#X obj 236 1565 + 1.5;
#X obj 294 1598 switch;
#X obj 403 1364 humanizer_slave, f 17;
#X floatatom 411 1527 5 0 0 0 - - -, f 5;
#X floatatom 448 1527 5 0 0 0 - - -, f 5;
#X obj 422 1657 noteout, f 17;
#X msg 383 1614 0;
#X obj 384 1468 r reset;
#X obj 513 1322 loadbang;
#X text 378 1443 noteoffs;
#X text 378 1452 when STOP;
#X text 377 1433 force;
#X obj 417 1611 switch;
#X obj 416 1572 + 1.5;
#X obj 474 1605 switch;
#X obj 572 1359 humanizer_slave, f 17;
#X floatatom 580 1522 5 0 0 0 - - -, f 5;
#X floatatom 617 1522 5 0 0 0 - - -, f 5;
#X obj 591 1652 noteout, f 17;
#X msg 552 1609 0;
#X obj 553 1463 r reset;
#X obj 682 1317 loadbang;
#X text 547 1438 noteoffs;
#X text 547 1447 when STOP;
#X text 546 1428 force;
#X obj 586 1606 switch;
#X obj 585 1567 + 1.5;
#X obj 643 1600 switch;
#X obj 751 1360 humanizer_slave, f 17;
#X floatatom 759 1523 5 0 0 0 - - -, f 5;
#X floatatom 796 1523 5 0 0 0 - - -, f 5;
#X obj 770 1653 noteout, f 17;
#X msg 731 1610 0;
#X obj 732 1464 r reset;
#X obj 861 1318 loadbang;
#X text 726 1439 noteoffs;
#X text 726 1448 when STOP;
#X text 725 1429 force;
#X obj 765 1607 switch;
#X obj 764 1568 + 1.5;
#X obj 822 1601 switch;
#X obj 923 1356 humanizer_slave, f 17;
#X floatatom 931 1519 5 0 0 0 - - -, f 5;
#X floatatom 968 1519 5 0 0 0 - - -, f 5;
#X obj 942 1649 noteout, f 17;
#X msg 903 1606 0;
#X obj 904 1460 r reset;
#X obj 1033 1314 loadbang;
#X text 898 1435 noteoffs;
#X text 898 1444 when STOP;
#X text 897 1425 force;
#X obj 937 1603 switch;
#X obj 936 1564 + 1.5;
#X obj 994 1597 switch;
#X obj 1097 1356 humanizer_slave, f 17;
#X floatatom 1105 1519 5 0 0 0 - - -, f 5;
#X floatatom 1142 1519 5 0 0 0 - - -, f 5;
#X obj 1116 1649 noteout, f 17;
#X msg 1077 1606 0;
#X obj 1078 1460 r reset;
#X obj 1207 1314 loadbang;
#X text 1072 1435 noteoffs;
#X text 1072 1444 when STOP;
#X text 1071 1425 force;
#X obj 1111 1603 switch;
#X obj 1110 1564 + 1.5;
#X obj 1168 1597 switch;
#X obj 1273 1355 humanizer_slave, f 17;
#X floatatom 1281 1518 5 0 0 0 - - -, f 5;
#X floatatom 1318 1518 5 0 0 0 - - -, f 5;
#X obj 1292 1648 noteout, f 17;
#X msg 1253 1605 0;
#X obj 1254 1459 r reset;
#X obj 1383 1313 loadbang;
#X text 1248 1434 noteoffs;
#X text 1248 1443 when STOP;
#X text 1247 1424 force;
#X obj 1287 1602 switch;
#X obj 1286 1563 + 1.5;
#X obj 1344 1596 switch;
#X text 218 869 CH2;
#X obj 219 887 notein 2;
#X obj 288 887 r 2ic;
#X obj 331 887 r 2me;
#X msg 339 932 2;
#X obj 313 1002 s 2e;
#X obj 242 1140 r 2on;
#X text 396 875 CH3;
#X obj 397 894 notein 3;
#X obj 466 893 r 3ic;
#X obj 509 893 r 3me;
#X msg 517 937 3;
#X obj 491 1008 s 3e;
#X obj 420 1145 r 3on;
#X text 569 870 CH4;
#X obj 570 889 notein 4;
#X obj 639 888 r 4ic;
#X obj 682 888 r 4me;
#X msg 690 933 4;
#X obj 664 1003 s 4e;
#X obj 593 1141 r 4on;
#X obj 743 884 notein 5;
#X text 742 865 CH5;
#X obj 812 883 r 5ic;
#X obj 855 883 r 5me;
#X msg 863 928 5;
#X obj 837 998 s 5e;
#X obj 766 1136 r 5on;
#X text 918 866 CH6;
#X obj 919 885 notein 6;
#X obj 988 884 r 6ic;
#X obj 1031 884 r 6me;
#X msg 1039 928 6;
#X obj 1013 999 s 6e;
#X obj 942 1137 r 6on;
#X text 1093 867 CH7;
#X obj 1094 886 notein 7;
#X obj 1163 885 r 7ic;
#X obj 1206 885 r 7me;
#X msg 1214 930 7;
#X obj 1188 1000 s 7e;
#X obj 1117 1138 r 7on;
#X text 1273 866 CH8;
#X obj 1343 883 r 8ic;
#X obj 1274 885 notein 8;
#X obj 1386 884 r 8me;
#X msg 1394 929 8;
#X obj 1368 999 s 8e;
#X obj 1296 1137 r 8on;
#X text 26 1275 CH9;
#X obj 27 1293 notein 9;
#X obj 96 1292 r 9ic;
#X obj 139 1293 r 9me;
#X msg 147 1338 9;
#X obj 121 1408 s 9e;
#X obj 50 1546 r 9on;
#X text 212 1272 CH10;
#X obj 213 1291 notein 10;
#X obj 282 1290 r 10ic;
#X obj 325 1290 r 10me;
#X msg 333 1335 10;
#X obj 307 1405 s 10e;
#X obj 236 1543 r 10on;
#X text 392 1279 CH11;
#X obj 393 1298 notein 11;
#X obj 462 1297 r 11ic;
#X obj 505 1297 r 11me;
#X msg 513 1342 11;
#X obj 488 1412 s 11e;
#X obj 416 1549 r 11on;
#X text 561 1274 CH12;
#X obj 562 1293 notein 12;
#X obj 631 1292 r 12ic;
#X obj 674 1292 r 12me;
#X msg 682 1337 12;
#X obj 656 1407 s 12e;
#X obj 585 1545 r 12on;
#X text 740 1275 CH13;
#X obj 741 1294 notein 13;
#X obj 810 1293 r 13ic;
#X obj 853 1293 r 13me;
#X msg 861 1337 13;
#X obj 835 1408 s 13e;
#X obj 764 1546 r 13on;
#X obj 913 1290 notein 14;
#X obj 982 1289 r 14ic;
#X obj 1025 1289 r 14me;
#X msg 1033 1335 14;
#X obj 1007 1404 s 14e;
#X obj 937 1542 r 14on;
#X obj 1087 1290 notein 15;
#X obj 1155 1289 r 15ic;
#X obj 1199 1289 r 15me;
#X msg 1207 1333 15;
#X obj 1181 1403 s 15e;
#X obj 1110 1542 r 15on;
#X text 1262 1270 CH16;
#X obj 1263 1289 notein 16;
#X obj 1332 1287 r 16ic;
#X obj 1375 1288 r 16me;
#X msg 1383 1333 16;
#X obj 1357 1403 s 16e;
#X obj 1287 1540 r 16on;
#X text 1086 1271 CH15;
#X text 911 1271 CH14;
#X obj 43 164 t b b;
#X obj 711 62 t b b;
#N canvas 0 22 450 300 (subpatch) 0;
#X array ch9_error 100 float 4 black black;
#X coords 0 80 99 -80 103 144 1;
#X restore 286 507 graph;
#X floatatom 344 120 6 0 0 0 - 1e -, f 6;
#X floatatom 603 116 6 0 0 0 - 2e -, f 6;
#X floatatom 858 119 6 0 0 0 - 3e -, f 6;
#X floatatom 1113 118 6 0 0 0 - 4e -, f 6;
#X floatatom 345 311 6 0 0 0 - 5e -, f 6;
#X floatatom 603 302 6 0 0 0 - 6e -, f 6;
#X floatatom 859 303 6 0 0 0 - 7e -, f 6;
#X floatatom 1115 307 6 0 0 0 - 8e -, f 6;
#X floatatom 346 489 6 0 0 0 - 9e -, f 6;
#X floatatom 606 486 6 0 0 0 - 10e -, f 6;
#X floatatom 865 489 6 0 0 0 - 11e -, f 6;
#X floatatom 1124 490 6 0 0 0 - 12e -, f 6;
#X floatatom 356 668 6 0 0 0 - 13e -, f 6;
#X floatatom 610 669 6 0 0 0 - 14e -, f 6;
#X floatatom 874 669 6 0 0 0 - 15e -, f 6;
#X floatatom 1130 676 6 0 0 0 - 16e -, f 6;
#X floatatom 1265 550 9 0 0 0 - spread -, f 9;
#X floatatom 1258 345 8 0 0 0 - meanmean -, f 8;
#X text 1067 844 comment;
#X text 1211 209 from the original tempo;
#X text 1212 220 before sending a click;
#X text 1211 232 to the virtual monitor send;
#X text 1210 298 Panic button: forces slaves;
#X text 1209 310 to return to the click;
#X text 1209 319 instantly;
#X text 1213 509 Mean of all the offsets [ms];
#X text 1207 712 Maximum time distance between slaves;
#X text 1204 737 Motor Error: musician skill;
#X text 1202 774 Iclock error: how well keeps tempo;
#X text 1203 799 Listening: if he listens to;
#X text 1269 810 the virtual monitor send;
#X text 1204 828 Influence: volume in the virtual;
#X text 1271 840 monitor send mix;
#X text 1280 762 5ms -> bad musician;
#X text 1280 785 5ms works well;
#X text 1280 750 0.3ms -> professional;
#X text 1321 552 [ms];
#X text 1309 346 [ms];
#X text 1212 198 Sets the allowed deviation;
#X connect 2 0 32 0;
#X connect 4 0 3 0;
#X connect 4 0 44 0;
#X connect 4 0 49 0;
#X connect 4 0 577 0;
#X connect 4 0 578 0;
#X connect 5 0 6 0;
#X connect 5 1 7 0;
#X connect 5 2 237 0;
#X connect 6 0 274 2;
#X connect 7 0 9 1;
#X connect 7 0 276 2;
#X connect 8 0 5 0;
#X connect 8 0 274 1;
#X connect 8 1 5 1;
#X connect 8 1 276 1;
#X connect 13 0 9 1;
#X connect 14 0 13 0;
#X connect 14 0 6 0;
#X connect 15 0 16 0;
#X connect 16 0 9 2;
#X connect 16 0 5 4;
#X connect 23 0 10 0;
#X connect 25 0 24 0;
#X connect 28 0 26 0;
#X connect 31 0 29 0;
#X connect 34 0 35 0;
#X connect 36 0 37 0;
#X connect 38 0 39 0;
#X connect 44 0 17 0;
#X connect 49 0 48 0;
#X connect 57 0 55 0;
#X connect 59 0 58 0;
#X connect 62 0 60 0;
#X connect 65 0 63 0;
#X connect 70 0 68 0;
#X connect 72 0 71 0;
#X connect 75 0 73 0;
#X connect 78 0 76 0;
#X connect 85 0 83 0;
#X connect 87 0 86 0;
#X connect 90 0 88 0;
#X connect 93 0 91 0;
#X connect 97 0 95 0;
#X connect 99 0 98 0;
#X connect 102 0 100 0;
#X connect 105 0 103 0;
#X connect 109 0 107 0;
#X connect 111 0 110 0;
#X connect 114 0 112 0;
#X connect 117 0 115 0;
#X connect 121 0 119 0;
#X connect 123 0 122 0;
#X connect 126 0 124 0;
#X connect 129 0 127 0;
#X connect 133 0 131 0;
#X connect 135 0 134 0;
#X connect 138 0 136 0;
#X connect 141 0 139 0;
#X connect 145 0 143 0;
#X connect 147 0 146 0;
#X connect 150 0 148 0;
#X connect 153 0 151 0;
#X connect 157 0 155 0;
#X connect 159 0 158 0;
#X connect 162 0 160 0;
#X connect 165 0 163 0;
#X connect 169 0 167 0;
#X connect 171 0 170 0;
#X connect 174 0 172 0;
#X connect 177 0 175 0;
#X connect 180 0 258 0;
#X connect 181 0 257 0;
#X connect 183 0 256 0;
#X connect 185 0 255 0;
#X connect 188 0 262 0;
#X connect 189 0 261 0;
#X connect 191 0 260 0;
#X connect 193 0 259 0;
#X connect 196 0 263 0;
#X connect 197 0 264 0;
#X connect 199 0 265 0;
#X connect 201 0 266 0;
#X connect 204 0 270 0;
#X connect 205 0 269 0;
#X connect 207 0 268 0;
#X connect 209 0 267 0;
#X connect 235 0 5 2;
#X connect 236 0 5 3;
#X connect 239 0 36 0;
#X connect 239 0 38 0;
#X connect 240 0 87 0;
#X connect 240 0 85 0;
#X connect 241 0 135 0;
#X connect 241 0 133 0;
#X connect 242 0 180 0;
#X connect 242 0 181 0;
#X connect 243 0 189 0;
#X connect 243 0 188 0;
#X connect 244 0 197 0;
#X connect 244 0 196 0;
#X connect 245 0 159 0;
#X connect 245 0 157 0;
#X connect 246 0 147 0;
#X connect 246 0 145 0;
#X connect 247 0 99 0;
#X connect 247 0 97 0;
#X connect 248 0 111 0;
#X connect 248 0 109 0;
#X connect 249 0 25 0;
#X connect 249 0 23 0;
#X connect 250 0 59 0;
#X connect 250 0 57 0;
#X connect 251 0 72 0;
#X connect 251 0 70 0;
#X connect 252 0 123 0;
#X connect 252 0 121 0;
#X connect 253 0 171 0;
#X connect 253 0 169 0;
#X connect 254 0 205 0;
#X connect 254 0 204 0;
#X connect 271 0 272 0;
#X connect 272 0 46 0;
#X connect 273 0 275 0;
#X connect 274 0 9 0;
#X connect 275 0 274 0;
#X connect 275 0 276 0;
#X connect 276 0 9 1;
#X connect 277 0 278 0;
#X connect 277 1 279 0;
#X connect 277 2 477 0;
#X connect 278 0 287 2;
#X connect 279 0 280 1;
#X connect 279 0 289 2;
#X connect 281 0 280 1;
#X connect 282 0 281 0;
#X connect 282 0 278 0;
#X connect 283 0 476 0;
#X connect 287 0 280 0;
#X connect 288 0 287 0;
#X connect 288 0 289 0;
#X connect 289 0 280 1;
#X connect 290 0 291 0;
#X connect 290 1 292 0;
#X connect 290 2 484 0;
#X connect 291 0 300 2;
#X connect 292 0 293 1;
#X connect 292 0 302 2;
#X connect 294 0 293 1;
#X connect 295 0 294 0;
#X connect 295 0 291 0;
#X connect 296 0 483 0;
#X connect 300 0 293 0;
#X connect 301 0 300 0;
#X connect 301 0 302 0;
#X connect 302 0 293 1;
#X connect 303 0 304 0;
#X connect 303 1 305 0;
#X connect 303 2 491 0;
#X connect 304 0 313 2;
#X connect 305 0 306 1;
#X connect 305 0 315 2;
#X connect 307 0 306 1;
#X connect 308 0 307 0;
#X connect 308 0 304 0;
#X connect 309 0 490 0;
#X connect 313 0 306 0;
#X connect 314 0 313 0;
#X connect 314 0 315 0;
#X connect 315 0 306 1;
#X connect 316 0 317 0;
#X connect 316 1 318 0;
#X connect 316 2 498 0;
#X connect 317 0 326 2;
#X connect 318 0 319 1;
#X connect 318 0 328 2;
#X connect 320 0 319 1;
#X connect 321 0 320 0;
#X connect 321 0 317 0;
#X connect 322 0 497 0;
#X connect 326 0 319 0;
#X connect 327 0 326 0;
#X connect 327 0 328 0;
#X connect 328 0 319 1;
#X connect 329 0 330 0;
#X connect 329 1 331 0;
#X connect 329 2 505 0;
#X connect 330 0 339 2;
#X connect 331 0 332 1;
#X connect 331 0 341 2;
#X connect 333 0 332 1;
#X connect 334 0 333 0;
#X connect 334 0 330 0;
#X connect 335 0 504 0;
#X connect 339 0 332 0;
#X connect 340 0 339 0;
#X connect 340 0 341 0;
#X connect 341 0 332 1;
#X connect 342 0 343 0;
#X connect 342 1 344 0;
#X connect 342 2 512 0;
#X connect 343 0 352 2;
#X connect 344 0 345 1;
#X connect 344 0 354 2;
#X connect 346 0 345 1;
#X connect 347 0 346 0;
#X connect 347 0 343 0;
#X connect 348 0 511 0;
#X connect 352 0 345 0;
#X connect 353 0 352 0;
#X connect 353 0 354 0;
#X connect 354 0 345 1;
#X connect 355 0 356 0;
#X connect 355 1 357 0;
#X connect 355 2 519 0;
#X connect 356 0 365 2;
#X connect 357 0 358 1;
#X connect 357 0 367 2;
#X connect 359 0 358 1;
#X connect 360 0 359 0;
#X connect 360 0 356 0;
#X connect 361 0 518 0;
#X connect 365 0 358 0;
#X connect 366 0 365 0;
#X connect 366 0 367 0;
#X connect 367 0 358 1;
#X connect 368 0 369 0;
#X connect 368 1 370 0;
#X connect 368 2 526 0;
#X connect 369 0 378 2;
#X connect 370 0 371 1;
#X connect 370 0 380 2;
#X connect 372 0 371 1;
#X connect 373 0 372 0;
#X connect 373 0 369 0;
#X connect 374 0 525 0;
#X connect 378 0 371 0;
#X connect 379 0 378 0;
#X connect 379 0 380 0;
#X connect 380 0 371 1;
#X connect 381 0 382 0;
#X connect 381 1 383 0;
#X connect 381 2 533 0;
#X connect 382 0 391 2;
#X connect 383 0 384 1;
#X connect 383 0 393 2;
#X connect 385 0 384 1;
#X connect 386 0 385 0;
#X connect 386 0 382 0;
#X connect 387 0 532 0;
#X connect 391 0 384 0;
#X connect 392 0 391 0;
#X connect 392 0 393 0;
#X connect 393 0 384 1;
#X connect 394 0 395 0;
#X connect 394 1 396 0;
#X connect 394 2 540 0;
#X connect 395 0 404 2;
#X connect 396 0 397 1;
#X connect 396 0 406 2;
#X connect 398 0 397 1;
#X connect 399 0 398 0;
#X connect 399 0 395 0;
#X connect 400 0 539 0;
#X connect 404 0 397 0;
#X connect 405 0 404 0;
#X connect 405 0 406 0;
#X connect 406 0 397 1;
#X connect 407 0 408 0;
#X connect 407 1 409 0;
#X connect 407 2 547 0;
#X connect 408 0 417 2;
#X connect 409 0 410 1;
#X connect 409 0 419 2;
#X connect 411 0 410 1;
#X connect 412 0 411 0;
#X connect 412 0 408 0;
#X connect 413 0 546 0;
#X connect 417 0 410 0;
#X connect 418 0 417 0;
#X connect 418 0 419 0;
#X connect 419 0 410 1;
#X connect 420 0 421 0;
#X connect 420 1 422 0;
#X connect 420 2 554 0;
#X connect 421 0 430 2;
#X connect 422 0 423 1;
#X connect 422 0 432 2;
#X connect 424 0 423 1;
#X connect 425 0 424 0;
#X connect 425 0 421 0;
#X connect 426 0 553 0;
#X connect 430 0 423 0;
#X connect 431 0 430 0;
#X connect 431 0 432 0;
#X connect 432 0 423 1;
#X connect 433 0 434 0;
#X connect 433 1 435 0;
#X connect 433 2 560 0;
#X connect 434 0 443 2;
#X connect 435 0 436 1;
#X connect 435 0 445 2;
#X connect 437 0 436 1;
#X connect 438 0 437 0;
#X connect 438 0 434 0;
#X connect 439 0 559 0;
#X connect 443 0 436 0;
#X connect 444 0 443 0;
#X connect 444 0 445 0;
#X connect 445 0 436 1;
#X connect 446 0 447 0;
#X connect 446 1 448 0;
#X connect 446 2 566 0;
#X connect 447 0 456 2;
#X connect 448 0 449 1;
#X connect 448 0 458 2;
#X connect 450 0 449 1;
#X connect 451 0 450 0;
#X connect 451 0 447 0;
#X connect 452 0 565 0;
#X connect 456 0 449 0;
#X connect 457 0 456 0;
#X connect 457 0 458 0;
#X connect 458 0 449 1;
#X connect 459 0 460 0;
#X connect 459 1 461 0;
#X connect 459 2 573 0;
#X connect 460 0 469 2;
#X connect 461 0 462 1;
#X connect 461 0 471 2;
#X connect 463 0 462 1;
#X connect 464 0 463 0;
#X connect 464 0 460 0;
#X connect 465 0 572 0;
#X connect 469 0 462 0;
#X connect 470 0 469 0;
#X connect 470 0 471 0;
#X connect 471 0 462 1;
#X connect 473 0 277 0;
#X connect 473 0 287 1;
#X connect 473 1 277 1;
#X connect 473 1 289 1;
#X connect 474 0 277 2;
#X connect 475 0 277 3;
#X connect 476 0 280 2;
#X connect 476 0 277 4;
#X connect 478 0 288 0;
#X connect 480 0 290 0;
#X connect 480 0 300 1;
#X connect 480 1 290 1;
#X connect 480 1 302 1;
#X connect 481 0 290 2;
#X connect 482 0 290 3;
#X connect 483 0 293 2;
#X connect 483 0 290 4;
#X connect 485 0 301 0;
#X connect 487 0 303 0;
#X connect 487 0 313 1;
#X connect 487 1 303 1;
#X connect 487 1 315 1;
#X connect 488 0 303 2;
#X connect 489 0 303 3;
#X connect 490 0 306 2;
#X connect 490 0 303 4;
#X connect 492 0 314 0;
#X connect 493 0 316 0;
#X connect 493 0 326 1;
#X connect 493 1 316 1;
#X connect 493 1 328 1;
#X connect 495 0 316 2;
#X connect 496 0 316 3;
#X connect 497 0 319 2;
#X connect 497 0 316 4;
#X connect 499 0 327 0;
#X connect 501 0 329 0;
#X connect 501 0 339 1;
#X connect 501 1 329 1;
#X connect 501 1 341 1;
#X connect 502 0 329 2;
#X connect 503 0 329 3;
#X connect 504 0 332 2;
#X connect 504 0 329 4;
#X connect 506 0 340 0;
#X connect 508 0 342 0;
#X connect 508 0 352 1;
#X connect 508 1 342 1;
#X connect 508 1 354 1;
#X connect 509 0 342 2;
#X connect 510 0 342 3;
#X connect 511 0 345 2;
#X connect 511 0 342 4;
#X connect 513 0 353 0;
#X connect 515 0 355 2;
#X connect 516 0 355 0;
#X connect 516 0 365 1;
#X connect 516 1 355 1;
#X connect 516 1 367 1;
#X connect 517 0 355 3;
#X connect 518 0 358 2;
#X connect 518 0 355 4;
#X connect 520 0 366 0;
#X connect 522 0 368 0;
#X connect 522 0 378 1;
#X connect 522 1 368 1;
#X connect 522 1 380 1;
#X connect 523 0 368 2;
#X connect 524 0 368 3;
#X connect 525 0 371 2;
#X connect 525 0 368 4;
#X connect 527 0 379 0;
#X connect 529 0 381 0;
#X connect 529 0 391 1;
#X connect 529 1 381 1;
#X connect 529 1 393 1;
#X connect 530 0 381 2;
#X connect 531 0 381 3;
#X connect 532 0 384 2;
#X connect 532 0 381 4;
#X connect 534 0 392 0;
#X connect 536 0 394 0;
#X connect 536 0 404 1;
#X connect 536 1 394 1;
#X connect 536 1 406 1;
#X connect 537 0 394 2;
#X connect 538 0 394 3;
#X connect 539 0 397 2;
#X connect 539 0 394 4;
#X connect 541 0 405 0;
#X connect 543 0 407 0;
#X connect 543 0 417 1;
#X connect 543 1 407 1;
#X connect 543 1 419 1;
#X connect 544 0 407 2;
#X connect 545 0 407 3;
#X connect 546 0 410 2;
#X connect 546 0 407 4;
#X connect 548 0 418 0;
#X connect 550 0 420 0;
#X connect 550 0 430 1;
#X connect 550 1 420 1;
#X connect 550 1 432 1;
#X connect 551 0 420 2;
#X connect 552 0 420 3;
#X connect 553 0 423 2;
#X connect 553 0 420 4;
#X connect 555 0 431 0;
#X connect 556 0 433 0;
#X connect 556 0 443 1;
#X connect 556 1 433 1;
#X connect 556 1 445 1;
#X connect 557 0 433 2;
#X connect 558 0 433 3;
#X connect 559 0 436 2;
#X connect 559 0 433 4;
#X connect 561 0 444 0;
#X connect 562 0 446 0;
#X connect 562 0 456 1;
#X connect 562 1 446 1;
#X connect 562 1 458 1;
#X connect 563 0 446 2;
#X connect 564 0 446 3;
#X connect 565 0 449 2;
#X connect 565 0 446 4;
#X connect 567 0 457 0;
#X connect 569 0 459 0;
#X connect 569 0 469 1;
#X connect 569 1 459 1;
#X connect 569 1 471 1;
#X connect 570 0 459 2;
#X connect 571 0 459 3;
#X connect 572 0 462 2;
#X connect 572 0 459 4;
#X connect 574 0 470 0;
#X connect 577 0 239 0;
#X connect 577 0 240 0;
#X connect 577 0 241 0;
#X connect 577 0 242 0;
#X connect 577 0 249 0;
#X connect 577 0 247 0;
#X connect 577 0 246 0;
#X connect 577 0 243 0;
#X connect 577 1 239 0;
#X connect 577 1 240 0;
#X connect 577 1 241 0;
#X connect 577 1 242 0;
#X connect 577 1 249 0;
#X connect 577 1 247 0;
#X connect 577 1 246 0;
#X connect 577 1 243 0;
#X connect 578 0 250 0;
#X connect 578 0 248 0;
#X connect 578 0 245 0;
#X connect 578 0 244 0;
#X connect 578 0 251 0;
#X connect 578 0 252 0;
#X connect 578 0 253 0;
#X connect 578 0 254 0;
#X connect 578 1 250 0;
#X connect 578 1 248 0;
#X connect 578 1 245 0;
#X connect 578 1 244 0;
#X connect 578 1 251 0;
#X connect 578 1 252 0;
#X connect 578 1 253 0;
#X connect 578 1 254 0;
#X coords 0 -1 1 1 1304 771 2 131 88;
