#N canvas 0 23 1280 728 10;
#X obj 671 415 fraction_of_a_beat;
#X obj 67 39 inlet;
#X obj 378 449 motor_noise;
#X text 374 432 bng;
#X obj 275 448 iclock_noise;
#X text 268 427 bng;
#X obj 467 449 listening;
#X text 332 432 std_i;
#X text 427 431 std_m;
#X obj 443 501 +, f 2;
#X text 468 432 calcular primer;
#X obj 452 550 *;
#X text 67 21 pitch;
#X obj 138 38 inlet;
#X text 141 21 vel;
#X obj 152 83 pack f f;
#X obj 67 602 outlet;
#X text 78 618 note out;
#X obj 135 603 outlet;
#X obj 158 133 spigot;
#X floatatom 693 493 12 0 0 0 - - -, f 12;
#X obj 452 582 integrator;
#X obj 414 607 +;
#X floatatom 358 722 20 0 0 0 - - -, f 20;
#X floatatom 520 561 5 0 0 0 - - -, f 5;
#X msg 285 748 50;
#X obj 285 724 loadbang;
#X obj 306 782 +;
#X floatatom 376 797 5 0 0 0 - - -, f 5;
#X obj 367 818 < 0;
#X obj 569 344 onebang 0;
#X obj 574 320 delay 0;
#X obj 485 353 onebang 0;
#X obj 490 330 delay 0;
#X obj 400 352 onebang 0;
#X obj 405 329 delay 0;
#X obj 254 348 onebang 0;
#X obj 263 324 delay 0;
#X obj 60 441 unpack;
#X obj 62 484 pipe f f 0;
#X text 165 334 polyphony glitch;
#X obj 97 132 spigot;
#X obj 215 82 > 0;
#X obj 104 87 == 0;
#X msg 310 881 !!!!ERROR!!! BUFFER EXCEEDED !!!!!!!!!!!!!;
#X obj 201 889 s reset;
#X obj 608 401 bng 15 250 50 0 empty empty empty 17 7 0 10 -262144
-1 -1;
#X obj 647 467 pow 0.333333;
#X obj 417 662 t f f;
#X obj 315 905 print;
#X obj 316 863 sel 1;
#X obj 141 813 switch;
#X obj 143 778 + 1;
#X msg 194 775 0;
#X obj 191 751 loadbang;
#X floatatom 140 835 5 0 0 0 - - -, f 5;
#X obj 140 856 < 0, f 5;
#X obj 250 136 t l b b b b b, f 66;
#X obj 535 401 inlet;
#X text 509 380 ch number;
#X obj 324 378 inlet;
#X obj 425 409 inlet;
#X text 323 354 iclock;
#X text 420 389 motor;
#X obj 388 753 outlet;
#X floatatom 535 423 5 0 0 0 - - -, f 5;
#X connect 0 0 47 0;
#X connect 1 0 15 0;
#X connect 2 0 22 0;
#X connect 4 0 9 0;
#X connect 6 0 9 1;
#X connect 9 0 11 0;
#X connect 11 0 21 0;
#X connect 11 0 24 0;
#X connect 13 0 15 1;
#X connect 13 0 42 0;
#X connect 13 0 43 0;
#X connect 15 0 19 0;
#X connect 15 0 41 0;
#X connect 19 0 57 0;
#X connect 21 0 22 1;
#X connect 22 0 48 0;
#X connect 23 0 27 0;
#X connect 23 0 64 0;
#X connect 25 0 27 1;
#X connect 26 0 25 0;
#X connect 27 0 28 0;
#X connect 28 0 29 0;
#X connect 28 0 51 1;
#X connect 29 0 52 0;
#X connect 30 0 0 0;
#X connect 30 0 46 0;
#X connect 31 0 30 1;
#X connect 32 0 6 0;
#X connect 33 0 32 1;
#X connect 34 0 2 0;
#X connect 35 0 34 1;
#X connect 36 0 4 0;
#X connect 37 0 36 1;
#X connect 38 0 39 0;
#X connect 38 1 39 1;
#X connect 39 0 16 0;
#X connect 39 1 18 0;
#X connect 41 0 38 0;
#X connect 42 0 19 1;
#X connect 43 0 41 1;
#X connect 44 0 49 0;
#X connect 47 0 11 1;
#X connect 47 0 20 0;
#X connect 48 1 23 0;
#X connect 50 0 44 0;
#X connect 50 0 45 0;
#X connect 51 0 39 2;
#X connect 51 0 55 0;
#X connect 52 0 51 0;
#X connect 53 0 51 2;
#X connect 54 0 53 0;
#X connect 55 0 56 0;
#X connect 56 0 50 0;
#X connect 57 0 38 0;
#X connect 57 1 37 0;
#X connect 57 1 36 0;
#X connect 57 2 35 0;
#X connect 57 2 34 0;
#X connect 57 3 33 0;
#X connect 57 3 32 0;
#X connect 57 4 31 0;
#X connect 57 4 30 0;
#X connect 58 0 6 1;
#X connect 58 0 65 0;
#X connect 60 0 4 1;
#X connect 61 0 2 1;
