#N canvas 133 186 244 300 10;
#X obj 51 24 inlet;
#X obj 177 182 inlet;
#X text 49 6 bng;
#X text 174 163 std;
#X obj 78 181 snapshot~;
#X obj 50 101 bng 15 250 50 0 empty empty empty 17 7 0 10 -262144 -1
-1;
#X obj 93 118 pink~;
#X obj 82 248 outlet;
#X obj 93 152 *~ 5.39;
#X obj 81 220 *;
#X connect 0 0 5 0;
#X connect 1 0 9 1;
#X connect 4 0 9 0;
#X connect 5 0 4 0;
#X connect 6 0 8 0;
#X connect 8 0 4 0;
#X connect 9 0 7 0;
