#N canvas 55 23 1060 549 10;
#X obj 211 590 outlet;
#X obj 204 60 inlet;
#X text 198 42 ch number;
#X text 343 502 divide into #channels active;
#X obj 43 45 inlet;
#X text 39 17 bang!;
#X obj 176 105 f;
#X floatatom 118 135 5 0 0 0 - - -, f 5;
#X obj 214 136 expr listenings[$f1]*(errors[1]-errors[$f1])*influences[1]+(errors[2]-errors[$f1])*influences[2]+(errors[3]-errors[$f1])*influences[3]+(errors[4]-errors[$f1])*influences[4]+(errors[5]-errors[$f1])*influences[5]+(errors[6]-errors[$f1])*influences[6]+(errors[7]-errors[$f1])*influences[7]+(errors[8]-errors[$f1])*influences[8]+(errors[9]-errors[$f1])*influences[9]+(errors[10]-errors[$f1])*influences[10]+(errors[11]-errors[$f1])*influences[11]+(errors[12]-errors[$f1])*influences[12]+(errors[13]-errors[$f1])*influences[13]+(errors[14]-errors[$f1])*influences[14]+(errors[15]-errors[$f1])*influences[15]+(errors[16]-errors[$f1])*influences[16]
;
#X obj 319 333 r metronome;
#X obj 308 438 switch;
#X obj 319 355 + 1;
#X floatatom 362 357 5 0 0 0 - - -, f 5;
#X obj 316 501 / 2;
#X obj 88 387 expr -errors[$f1]*0.5;
#X floatatom 88 409 5 0 0 0 - - -, f 5;
#X floatatom 214 301 5 0 0 0 - - -, f 5;
#X floatatom 308 460 5 0 0 0 - - -, f 5;
#X floatatom 204 82 5 0 0 0 - - -, f 5;
#X obj 368 469 r active_channels;
#X floatatom 368 491 5 0 0 0 - - -, f 5;
#X connect 1 0 6 1;
#X connect 1 0 18 0;
#X connect 4 0 6 0;
#X connect 6 0 7 0;
#X connect 6 0 8 0;
#X connect 6 0 14 0;
#X connect 8 0 10 1;
#X connect 8 0 16 0;
#X connect 9 0 11 0;
#X connect 9 0 12 0;
#X connect 10 0 17 0;
#X connect 10 0 13 0;
#X connect 11 0 10 0;
#X connect 13 0 0 0;
#X connect 14 0 10 2;
#X connect 14 0 15 0;
#X connect 19 0 20 0;
#X connect 19 0 13 1;
