#N canvas 861 23 192 254 10;
#X obj 33 156 gauss;
#X floatatom 33 189 5 0 0 0 - - -, f 5;
#X text 34 52 std;
#X text 67 52 mu;
#X floatatom 37 121 5 0 0 0 - - -, f 5;
#X floatatom 74 122 5 0 0 0 - - -, f 5;
#X msg 34 94 1;
#X msg 71 94 0;
#X obj 34 68 loadbang;
#X text 71 146 normalized \; gaussian \; distribution;
#X obj 130 215 *;
#X obj 6 22 inlet;
#X obj 140 25 inlet;
#X text 4 4 note bang;
#X text 139 5 std;
#X obj 33 245 outlet;
#X text 52 216 apply weight;
#X connect 0 0 1 0;
#X connect 1 0 10 0;
#X connect 4 0 0 1;
#X connect 5 0 0 2;
#X connect 6 0 4 0;
#X connect 7 0 5 0;
#X connect 8 0 6 0;
#X connect 8 0 7 0;
#X connect 10 0 15 0;
#X connect 11 0 0 0;
#X connect 12 0 10 1;
